<?xml version="1.0" encoding="UTF-8"?>
<svg width="100px" height="50px" viewBox="0 0 100 50" version="1.1" xmlns="http://www.w3.org/2000/svg" xmlns:xlink="http://www.w3.org/1999/xlink">
    <!-- Generator: Sketch 50.2 (55047) - http://www.bohemiancoding.com/sketch -->
    <title>flexible</title>
    <desc>Created with Sketch.</desc>
    <defs></defs>
    <g id="desk" stroke="none" stroke-width="1" fill="none" fill-rule="evenodd">
        <g id="graphic" transform="translate(-605.000000, -667.000000)">
            <g id="flexible" transform="translate(595.000000, 632.000000)">
                <rect id="Rectangle-42" fill="#FF0000" opacity="0" x="0" y="0" width="120" height="120"></rect>
                <g transform="translate(10.000000, 35.000000)">
                    <polygon id="Path-23" fill="#002936" fill-rule="nonzero" points="55.517436 11.4523651 55.517436 27.2151899 81.875 27.2151899 81.875 26.5223185 56.1886391 26.5223185 56.1886391 10.7594937 23.125 10.7594937 23.125 11.4523651"></polygon>
                    <polygon id="Path-24" fill="#002936" fill-rule="nonzero" points="13.1617647 17.721519 12.5 17.721519 12.5 41.7721519 29.375 41.7721519 29.375 41.0852753 13.1617647 41.0852753"></polygon>
                    <g id="Group-13">
                        <path d="M23.125,9.86655498 L23.125,20.2531646 L1.875,20.2531646 L1.875,10.064071 C2.07694371,10.1050634 2.28595885,10.1265823 2.5,10.1265823 C4.22588984,10.1265823 5.625,8.72747212 5.625,7.00158228 C5.625,8.72747212 7.02411016,10.1265823 8.75,10.1265823 C10.4758898,10.1265823 11.875,8.72747212 11.875,7.00158228 L11.875,4.43037975 L12.5,4.43037975 L12.5,7.00158228 C12.5,8.72747212 13.8991102,10.1265823 15.625,10.1265823 C17.3508898,10.1265823 18.75,8.72747212 18.75,7.00158228 C18.75,8.72747212 20.1491102,10.1265823 21.875,10.1265823 C22.3194404,10.1265823 22.742211,10.0338026 23.125,9.86655498 Z" id="Combined-Shape" fill="#002936"></path>
                        <g id="Group-11" transform="translate(4.375000, 12.025316)" fill="#17D6D8">
                            <rect id="Rectangle-37" x="0.625" y="7.56894547e-14" width="4.375" height="5.69620253" rx="0.625"></rect>
                        </g>
                        <rect id="Rectangle-38" fill="#FFFFFF" x="11.875" y="12.0253165" width="8.75" height="6.32911392" rx="0.625"></rect>
                        <path d="M18.75,-1.0658141e-14 L25,-1.0658141e-14 L25,6.36867089 C25,8.09456073 23.6008898,9.49367089 21.875,9.49367089 C20.1491102,9.49367089 18.75,8.09456073 18.75,6.36867089 C18.75,8.09456073 17.3508898,9.49367089 15.625,9.49367089 C13.8991102,9.49367089 12.5,8.09456073 12.5,6.36867089 C12.5,8.09456073 11.1008898,9.49367089 9.375,9.49367089 C7.64911016,9.49367089 6.25,8.09456073 6.25,6.36867089 C6.25,8.09456073 4.85088984,9.49367089 3.125,9.49367089 C1.39911016,9.49367089 6.76817872e-16,8.09456073 8.8817842e-16,6.36867089 L0,0 L6.25,0 L12.5,0 L18.75,-1.0658141e-14 Z" id="Combined-Shape" fill="#002936"></path>
                    </g>
                    <g id="Group-13" transform="translate(74.375000, 15.822785)">
                        <path d="M23.125,9.86655498 L23.125,20.2531646 L1.875,20.2531646 L1.875,10.064071 C2.07694371,10.1050634 2.28595885,10.1265823 2.5,10.1265823 C4.22588984,10.1265823 5.625,8.72747212 5.625,7.00158228 C5.625,8.72747212 7.02411016,10.1265823 8.75,10.1265823 C10.4758898,10.1265823 11.875,8.72747212 11.875,7.00158228 L11.875,4.43037975 L12.5,4.43037975 L12.5,7.00158228 C12.5,8.72747212 13.8991102,10.1265823 15.625,10.1265823 C17.3508898,10.1265823 18.75,8.72747212 18.75,7.00158228 C18.75,8.72747212 20.1491102,10.1265823 21.875,10.1265823 C22.3194404,10.1265823 22.742211,10.0338026 23.125,9.86655498 Z" id="Combined-Shape" fill="#002936"></path>
                        <g id="Group-11" transform="translate(4.375000, 12.025316)" fill="#FFFFFF">
                            <rect id="Rectangle-37" x="0.625" y="-1.55708779e-14" width="5" height="6.32911392" rx="0.625"></rect>
                        </g>
                        <rect id="Rectangle-38" fill="#FFFFFF" x="11.875" y="12.0253165" width="8.75" height="6.32911392" rx="0.625"></rect>
                        <path d="M18.75,-1.0658141e-14 L25,-1.0658141e-14 L25,6.36867089 C25,8.09456073 23.6008898,9.49367089 21.875,9.49367089 C20.1491102,9.49367089 18.75,8.09456073 18.75,6.36867089 C18.75,8.09456073 17.3508898,9.49367089 15.625,9.49367089 C13.8991102,9.49367089 12.5,8.09456073 12.5,6.36867089 C12.5,8.09456073 11.1008898,9.49367089 9.375,9.49367089 C7.64911016,9.49367089 6.25,8.09456073 6.25,6.36867089 C6.25,8.09456073 4.85088984,9.49367089 3.125,9.49367089 C1.39911016,9.49367089 6.76817872e-16,8.09456073 8.8817842e-16,6.36867089 L0,0 L6.25,0 L12.5,0 L18.75,-1.0658141e-14 Z" id="Combined-Shape" fill="#002936"></path>
                    </g>
                    <g id="Group-13" transform="translate(25.625000, 29.746835)">
                        <path d="M23.125,9.86655498 L23.125,20.2531646 L1.875,20.2531646 L1.875,10.064071 C2.07694371,10.1050634 2.28595885,10.1265823 2.5,10.1265823 C4.22588984,10.1265823 5.625,8.72747212 5.625,7.00158228 C5.625,8.72747212 7.02411016,10.1265823 8.75,10.1265823 C10.4758898,10.1265823 11.875,8.72747212 11.875,7.00158228 L11.875,4.43037975 L12.5,4.43037975 L12.5,7.00158228 C12.5,8.72747212 13.8991102,10.1265823 15.625,10.1265823 C17.3508898,10.1265823 18.75,8.72747212 18.75,7.00158228 C18.75,8.72747212 20.1491102,10.1265823 21.875,10.1265823 C22.3194404,10.1265823 22.742211,10.0338026 23.125,9.86655498 Z" id="Combined-Shape" fill="#002936"></path>
                        <g id="Group-11" transform="translate(4.375000, 12.025316)" fill="#FFFFFF">
                            <rect id="Rectangle-37" x="0.625" y="7.56894547e-14" width="4.375" height="5.69620253" rx="0.625"></rect>
                        </g>
                        <rect id="Rectangle-38" fill="#17D6D8" x="11.875" y="12.0253165" width="8.75" height="6.32911392" rx="0.625"></rect>
                        <path d="M18.75,-1.0658141e-14 L25,-1.0658141e-14 L25,6.36867089 C25,8.09456073 23.6008898,9.49367089 21.875,9.49367089 C20.1491102,9.49367089 18.75,8.09456073 18.75,6.36867089 C18.75,8.09456073 17.3508898,9.49367089 15.625,9.49367089 C13.8991102,9.49367089 12.5,8.09456073 12.5,6.36867089 C12.5,8.09456073 11.1008898,9.49367089 9.375,9.49367089 C7.64911016,9.49367089 6.25,8.09456073 6.25,6.36867089 C6.25,8.09456073 4.85088984,9.49367089 3.125,9.49367089 C1.39911016,9.49367089 6.76817872e-16,8.09456073 8.8817842e-16,6.36867089 L0,0 L6.25,0 L12.5,0 L18.75,-1.0658141e-14 Z" id="Combined-Shape" fill="#002936"></path>
                    </g>
                </g>
            </g>
        </g>
    </g>
</svg>