<?xml version="1.0" encoding="UTF-8"?>
<svg width="90px" height="90px" viewBox="0 0 90 90" version="1.1" xmlns="http://www.w3.org/2000/svg" xmlns:xlink="http://www.w3.org/1999/xlink">
    <!-- Generator: Sketch 50.2 (55047) - http://www.bohemiancoding.com/sketch -->
    <title>support</title>
    <desc>Created with Sketch.</desc>
    <defs></defs>
    <g id="desk" stroke="none" stroke-width="1" fill="none" fill-rule="evenodd">
        <g id="graphic" transform="translate(-639.000000, -331.000000)">
            <g id="support" transform="translate(624.000000, 316.000000)">
                <rect id="Rectangle-42" fill="#FF0000" opacity="0" x="0" y="0" width="120" height="120"></rect>
                <g transform="translate(15.000000, 15.000000)">
                    <rect id="Rectangle-7" fill="#002936" x="0" y="0" width="90" height="90" rx="45"></rect>
                    <path d="M54.9152542,58.5 L54.9152542,70.5 L42.8008641,58.5 L26.0734463,58.5 C25.1529717,58.5 24.4067797,57.7538079 24.4067797,56.8333333 L24.4067797,33.1666667 C24.4067797,32.2461921 25.1529717,31.5 26.0734463,31.5 L60.8757062,31.5 C61.7961808,31.5 62.5423729,32.2461921 62.5423729,33.1666667 L62.5423729,56.8333333 C62.5423729,57.7538079 61.7961808,58.5 60.8757062,58.5 L54.9152542,58.5 Z" id="Combined-Shape" fill="#17D6D8"></path>
                </g>
                <path d="M61.078437,57.5 L46.6964915,57.5" id="Line-4" stroke="#FFFFFF" stroke-width="3" stroke-linecap="round" stroke-linejoin="round"></path>
                <path d="M69.5,63.5 L46.6964915,63.5" id="Line-4" stroke="#002936" stroke-width="3" stroke-linecap="round" stroke-linejoin="round"></path>
            </g>
        </g>
    </g>
</svg>