<?xml version="1.0" encoding="UTF-8"?>
<svg width="100px" height="57px" viewBox="0 0 100 57" version="1.1" xmlns="http://www.w3.org/2000/svg" xmlns:xlink="http://www.w3.org/1999/xlink">
    <!-- Generator: Sketch 50.2 (55047) - http://www.bohemiancoding.com/sketch -->
    <title>adminpanel</title>
    <desc>Created with Sketch.</desc>
    <defs></defs>
    <g id="desk" stroke="none" stroke-width="1" fill="none" fill-rule="evenodd">
        <g id="graphic" transform="translate(-96.000000, -135.000000)">
            <g id="adminpanel" transform="translate(86.000000, 103.000000)">
                <rect id="Rectangle-42" fill="#FAFAFA" opacity="0" x="0" y="0" width="120" height="120"></rect>
                <g transform="translate(10.000000, 32.000000)" id="Group-11">
                    <g>
                        <path d="M11.5973228,-5.54556401e-14 L19.0140845,-5.54556401e-14 L19.0140845,56.3380282 L11.5973228,56.3380282 C5.1922983,56.3380282 3.64780595e-14,51.1457299 3.56936702e-14,44.7407053 L3.39173134e-14,11.5973228 C3.31329241e-14,5.1922983 5.1922983,-5.6055413e-14 11.5973228,-5.72319969e-14 Z" id="Rectangle-7" fill="#002936"></path>
                        <rect id="Rectangle-17" fill="#FFFFFF" x="4.22535211" y="14.084507" width="11.2676056" height="1.4084507" rx="0.704225352"></rect>
                        <rect id="Rectangle-17" fill="#FFFFFF" x="4.22535211" y="19.7183099" width="11.2676056" height="1.4084507" rx="0.704225352"></rect>
                        <rect id="Rectangle-17" fill="#FFFFFF" x="4.22535211" y="26.056338" width="11.2676056" height="1.4084507" rx="0.704225352"></rect>
                        <rect id="Rectangle-17" fill="#FFFFFF" x="4.22535211" y="31.6901408" width="7.04225352" height="1.4084507" rx="0.704225352"></rect>
                        <path d="M19.0140845,-5.54556401e-14 L87.6984518,-5.54556401e-14 C94.1034764,-5.6632224e-14 99.2957746,5.1922983 99.2957746,11.5973228 L99.2957746,44.7407053 C99.2957746,51.1457299 94.1034764,56.3380282 87.6984518,56.3380282 L19.0140845,56.3380282 L19.0140845,-5.54556401e-14 Z" id="Combined-Shape" fill="#002936"></path>
                        <rect id="Rectangle-11" fill="#FFFFFF" x="40.8450704" y="19.0140845" width="2.81690141" height="7.04225352" rx="1.18150685"></rect>
                        <rect id="Rectangle-11" fill="#FFFFFF" x="47.1830986" y="16.9014085" width="2.81690141" height="9.15492958" rx="1.18150685"></rect>
                        <rect id="Rectangle-11" fill="#FFFFFF" x="52.8169014" y="20.4225352" width="2.81690141" height="5.63380282" rx="1.18150685"></rect>
                        <rect id="Rectangle-14" fill="#FFFFFF" x="40.8450704" y="32.3943662" width="14.7887324" height="14.7887324" rx="2.89933071"></rect>
                        <rect id="Rectangle-14" fill="#FFFFFF" x="64.084507" y="32.3943662" width="14.7887324" height="14.7887324" rx="2.89933071"></rect>
                        <circle id="Oval-5" fill="#002936" cx="9.85915493" cy="6.33802817" r="2.11267606"></circle>
                        <rect id="Rectangle-11" fill="#FFFFFF" x="58.4507042" y="15.4929577" width="2.81690141" height="10.5633803" rx="1.18150685"></rect>
                        <rect id="Rectangle-11" fill="#FFFFFF" x="64.084507" y="12.6760563" width="2.81690141" height="13.3802817" rx="1.18150685"></rect>
                        <rect id="Rectangle-11" fill="#17D6D8" x="70.4225352" y="9.15492958" width="2.81690141" height="16.1971831" rx="1.18150685"></rect>
                        <rect id="Rectangle-11" fill="#FFFFFF" x="75.3521127" y="11.2676056" width="2.81690141" height="14.084507" rx="1.18150685"></rect>
                    </g>
                </g>
            </g>
        </g>
    </g>
</svg>