<?xml version="1.0" encoding="UTF-8"?>
<svg width="90px" height="90px" viewBox="0 0 90 90" version="1.1" xmlns="http://www.w3.org/2000/svg" xmlns:xlink="http://www.w3.org/1999/xlink">
    <!-- Generator: Sketch 50.2 (55047) - http://www.bohemiancoding.com/sketch -->
    <title>API</title>
    <desc>Created with Sketch.</desc>
    <defs></defs>
    <g id="desk" stroke="none" stroke-width="1" fill="none" fill-rule="evenodd">
        <g id="graphic" transform="translate(-124.000000, -542.000000)">
            <g id="API" transform="translate(109.000000, 527.000000)">
                <rect id="Rectangle-42" fill="#FF0000" opacity="0" x="0" y="0" width="120" height="120"></rect>
                <g transform="translate(15.000000, 15.000000)">
                    <rect id="Rectangle-7" fill="#002936" x="0" y="0" width="90" height="90" rx="45"></rect>
                    <path d="M59.3534483,64.0677966 L32.1982759,64.0677966 C30.6993103,64.0677966 29.4827586,62.8501816 29.4827586,61.3438257 L29.4827586,28.6561743 C29.4827586,27.1498184 30.6993103,25.9322034 32.1982759,25.9322034 L59.3534483,25.9322034 C60.8524138,25.9322034 62.0689655,27.1498184 62.0689655,28.6561743 L62.0689655,61.3438257 C62.0689655,62.8501816 60.8524138,64.0677966 59.3534483,64.0677966 Z M37.0197044,47.2881356 L52.9802956,47.2881356 C53.7148615,47.2881356 54.3103448,46.6051801 54.3103448,45.7627119 C54.3103448,44.9202436 53.7148615,44.2372881 52.9802956,44.2372881 L37.0197044,44.2372881 C36.2851385,44.2372881 35.6896552,44.9202436 35.6896552,45.7627119 C35.6896552,46.6051801 36.2851385,47.2881356 37.0197044,47.2881356 Z M37.0862069,38.1355932 L48.2586207,38.1355932 C49.0299149,38.1355932 49.6551724,37.4526378 49.6551724,36.6101695 C49.6551724,35.7677012 49.0299149,35.0847458 48.2586207,35.0847458 L37.0862069,35.0847458 C36.3149127,35.0847458 35.6896552,35.7677012 35.6896552,36.6101695 C35.6896552,37.4526378 36.3149127,38.1355932 37.0862069,38.1355932 Z" id="Combined-Shape" fill="#17D6D8"></path>
                    <path d="M37.0197044,54.9152542 L52.9802956,54.9152542 C53.7148615,54.9152542 54.3103448,54.2322988 54.3103448,53.3898305 C54.3103448,52.5473622 53.7148615,51.8644068 52.9802956,51.8644068 L37.0197044,51.8644068 C36.2851385,51.8644068 35.6896552,52.5473622 35.6896552,53.3898305 C35.6896552,54.2322988 36.2851385,54.9152542 37.0197044,54.9152542 Z" id="Stroke-204" fill="#FFFFFF"></path>
                </g>
            </g>
        </g>
    </g>
</svg>