<?xml version="1.0" encoding="UTF-8"?>
<svg width="24px" height="24px" viewBox="0 0 24 24" version="1.1" xmlns="http://www.w3.org/2000/svg" xmlns:xlink="http://www.w3.org/1999/xlink">
    <!-- Generator: Sketch 50.2 (55047) - http://www.bohemiancoding.com/sketch -->
    <title>path-2</title>
    <desc>Created with Sketch.</desc>
    <defs></defs>
    <g id="Page-1" stroke="none" stroke-width="1" fill="none" fill-rule="evenodd">
        <g id="timeline" transform="translate(-26.000000, -558.000000)" fill="#002936">
            <g id="Group-9" transform="translate(21.000000, 553.000000)">
                <path d="M12.2681388,24.1545741 C10.9356467,24.1545741 9.84542587,25.244795 9.84542587,26.5772871 C9.84542587,27.9097792 10.9356467,29 12.2681388,29 C13.6006309,29 14.6908517,27.9097792 14.6908517,26.5772871 C14.6908517,25.244795 13.6006309,24.1545741 12.2681388,24.1545741 Z M5,5 L5,7.40252363 L7.4,7.40252363 L11.72,16.5321135 L10.04,19.415142 C9.92000001,19.7755206 9.80000001,20.2560253 9.80000001,20.6164037 C9.80000001,21.9377918 10.88,23.0189275 12.2,23.0189275 L26.6000001,23.0189275 L26.6000001,20.6164037 L12.68,20.6164037 C12.56,20.6164037 12.44,20.4962776 12.44,20.3761514 L12.44,20.2560253 L13.52,18.2138801 L22.4,18.2138801 C23.3600001,18.2138801 24.08,17.7333754 24.4400001,17.0126184 L28.76,9.20441643 C29,8.96416408 29,8.84403785 29,8.6037855 C29,7.88302844 28.5200001,7.40252363 27.8,7.40252363 L10.04,7.40252363 L8.96000001,5 L5,5 Z M24.1545742,24.1545741 C22.822082,24.1545741 21.7318612,25.244795 21.7318612,26.5772871 C21.7318612,27.9097792 22.822082,29 24.1545742,29 C25.4870663,29 26.5772871,27.9097792 26.5772871,26.5772871 C26.5772871,25.244795 25.4870663,24.1545741 24.1545742,24.1545741 Z" id="path-2"></path>
            </g>
        </g>
    </g>
</svg>