<?xml version="1.0" encoding="UTF-8"?>
<svg width="12px" height="12px" viewBox="0 0 12 12" version="1.1" xmlns="http://www.w3.org/2000/svg" xmlns:xlink="http://www.w3.org/1999/xlink">
    <!-- Generator: Sketch 50.2 (55047) - http://www.bohemiancoding.com/sketch -->
    <title>path-2</title>
    <desc>Created with Sketch.</desc>
    <defs></defs>
    <g id="Page-1" stroke="none" stroke-width="1" fill="none" fill-rule="evenodd">
        <g id="timeline" transform="translate(-26.000000, -558.000000)" fill="#002936">
            <g id="Group-9" transform="translate(21.000000, 553.000000)">
                <path d="M8.63406941,14.5772871 C7.96782335,14.5772871 7.42271294,15.1223975 7.42271294,15.7886436 C7.42271294,16.4548896 7.96782335,17 8.63406941,17 C9.30031544,17 9.84542585,16.4548896 9.84542585,15.7886436 C9.84542585,15.1223975 9.30031544,14.5772871 8.63406941,14.5772871 Z M5,5 L5,6.20126181 L6.2,6.20126181 L8.36,10.7660568 L7.52000001,12.207571 C7.46,12.3877603 7.40000001,12.6280126 7.40000001,12.8082019 C7.40000001,13.4688959 7.94,14.0094637 8.60000001,14.0094637 L15.8,14.0094637 L15.8,12.8082019 L8.84000001,12.8082019 C8.78,12.8082019 8.72000001,12.7481388 8.72000001,12.6880757 L8.72000001,12.6280126 L9.25999999,11.6069401 L13.7,11.6069401 C14.18,11.6069401 14.54,11.3666877 14.72,11.0063092 L16.88,7.10220822 C17,6.98208204 17,6.92201892 17,6.80189275 C17,6.44151422 16.76,6.20126181 16.4,6.20126181 L7.52000001,6.20126181 L6.98,5 L5,5 Z M14.5772871,14.5772871 C13.911041,14.5772871 13.3659306,15.1223975 13.3659306,15.7886436 C13.3659306,16.4548896 13.911041,17 14.5772871,17 C15.2435331,17 15.7886435,16.4548896 15.7886435,15.7886436 C15.7886435,15.1223975 15.2435331,14.5772871 14.5772871,14.5772871 Z" id="path-2"></path>
            </g>
        </g>
    </g>
</svg>