<?xml version="1.0" encoding="UTF-8"?>
<svg width="156px" height="17px" viewBox="0 0 156 17" version="1.1" xmlns="http://www.w3.org/2000/svg" xmlns:xlink="http://www.w3.org/1999/xlink">
    <!-- Generator: Sketch 50.2 (55047) - http://www.bohemiancoding.com/sketch -->
    <title>logo</title>
    <desc>Created with Sketch.</desc>
    <defs></defs>
    <g id="desk" stroke="none" stroke-width="1" fill="none" fill-rule="evenodd">
        <g id="Nomo" transform="translate(-80.000000, -37.000000)" fill="#FFFFFF">
            <g id="logo" transform="translate(80.000000, 37.000000)">
                <path d="M112.960012,0 C109.69875,0 108.070621,1.6497963 105.73052,3.46877597 L106.006434,3.25238665 L99.4458766,8.79891359 C97.8484421,10.2529947 96.7120884,10.7977583 95.5393687,10.7977583 L95.4602977,10.7977583 C94.287578,10.7977583 93.1512242,10.2529947 91.5537898,8.79891359 L84.993232,3.25238665 L85.2691464,3.46877597 C82.9290451,1.6497963 81.3009165,0 78.0399883,0 C73.7391263,0 71.0613885,3.08802724 71,7.91061475 L71,16.9944869 L75.699887,17 L75.7205722,7.95265217 C75.838011,6.71530494 76.7545006,5.90108843 78.0706825,5.90108843 C79.242735,5.90108843 80.379756,6.445852 81.9771904,7.89993311 L85.4032669,10.7426272 L88.2618338,13.2300707 C90.6012678,15.0490504 92.2293965,16.6985021 95.4909919,16.6985021 L95.5086745,16.6985021 C98.7702699,16.6985021 100.398399,15.0490504 102.737833,13.2300707 L105.596399,10.7426272 L109.02281,7.89993311 C110.61991,6.445852 111.756931,5.90108843 112.928984,5.90108843 C114.245166,5.90108843 115.161655,6.71530494 115.279094,7.95265217 L115.299779,17 L120,16.9944869 L120,7.91061475 C119.938278,3.08802724 117.260874,0 112.960012,0" id="Fill-4"></path>
                <path d="M151,9.05444283 C151,10.6811271 149.626452,12 147.932332,12 L132.067668,12 C130.37388,12 129,10.6811271 129,9.05444283 L129,7.94587582 C129,6.31887291 130.37388,5 132.067668,5 L147.932332,5 C149.626452,5 151,6.31887291 151,7.94587582 L151,9.05444283 Z M149.110448,0 L130.889891,0 C127.084672,0 124,3.08622786 124,6.89370479 L124,10.1062952 C124,13.9134334 127.084672,17 130.889891,17 L149.110448,17 C152.915667,17 156,13.9134334 156,10.1062952 L156,6.89370479 C156,3.08622786 152.915667,0 149.110448,0 Z" id="Fill-6"></path>
                <path d="M63,9.05444283 C63,10.6811271 61.6264519,12 59.9323317,12 L44.0676683,12 C42.3735481,12 41,10.6811271 41,9.05444283 L41,7.94587582 C41,6.31887291 42.3735481,5 44.0676683,5 L59.9323317,5 C61.6264519,5 63,6.31887291 63,7.94587582 L63,9.05444283 Z M61.1101823,0 L42.8901563,0 C39.0849778,0 36,3.08622786 36,6.89370479 L36,10.1062952 C36,13.9134334 39.0849778,17 42.8901563,17 L61.1101823,17 C64.9153608,17 68,13.9134334 68,10.1062952 L68,6.89370479 C68,3.08622786 64.9153608,0 61.1101823,0 Z" id="Fill-8"></path>
                <path d="M7.14470733,0.295911255 C10.45448,0.295911255 11.8271469,1.70436757 14.2017184,3.49168509 L20.8595251,8.94166617 C22.4807212,10.3704368 23.6343167,10.9057179 24.8241419,10.9057179 C26.1595632,10.9057179 27.0896855,10.1056741 27.2092098,8.8895262 L27.2298641,0 L32,0.00507856844 L32,8.93117046 C31.9376984,13.6694748 29.2201295,16.7037502 24.8552927,16.7037502 C21.54552,16.7037502 19.8931731,15.0830097 17.5186016,13.2956922 L14.6178525,10.8515465 L11.1404749,8.05833383 C9.51927879,6.62956324 8.36568333,6.09428213 7.17585813,6.09428213 C5.84043679,6.09428213 4.91031447,6.89432594 4.7907902,8.11013523 L4.77013586,17 L5.55111512e-17,16.9945829 L5.55111512e-17,8.06882954 C0.0623016041,3.33018661 2.77987049,0.295911255 7.14470733,0.295911255" id="Fill-1"></path>
            </g>
        </g>
    </g>
</svg>