<?xml version="1.0" encoding="UTF-8"?>
<svg width="87px" height="80px" viewBox="0 0 87 80" version="1.1" xmlns="http://www.w3.org/2000/svg" xmlns:xlink="http://www.w3.org/1999/xlink">
    <!-- Generator: Sketch 50.2 (55047) - http://www.bohemiancoding.com/sketch -->
    <title>sellers</title>
    <desc>Created with Sketch.</desc>
    <defs></defs>
    <g id="desk" stroke="none" stroke-width="1" fill="none" fill-rule="evenodd">
        <g id="graphic" transform="translate(-337.000000, -332.000000)">
            <g id="sellers" transform="translate(320.000000, 312.000000)">
                <rect id="Rectangle-42" fill="#FF0000" opacity="0" x="0" y="0" width="120" height="120"></rect>
                <g transform="translate(17.000000, 20.000000)">
                    <path d="M60.6065138,43.1046573 L59.203388,38.5476865 C58.9091787,38.429434 58.7013372,38.1403022 58.7013372,37.8023805 C58.7013372,37.359238 59.0587636,37 59.4996713,37 C59.5668543,37 59.633757,37.0012049 59.7003589,37.0035942 C59.7803978,36.995841 59.8597882,37.0007664 59.9360551,37.0170621 C62.7687201,37.2394515 65,39.6082379 65,42.4996716 C65,44.0773771 64.3359438,45.499416 63.2724287,46.502181 L64.5474589,50.6431319 C66.638621,49.5918379 69.000364,49 71.5,49 C80.0582112,49 87,55.9376952 87,64.5 C87,73.0623048 80.0582112,80 71.5,80 C62.9417888,80 56,73.0623048 56,64.5 C56,59.0052417 58.8588227,54.1795429 63.1690497,51.4270767 L62.5924591,49.5544673 L38.7088101,61.4943535 C38.8998611,62.4666629 39,63.4716135 39,64.5 C39,73.0623048 32.0582112,80 23.5,80 C14.9417888,80 8,73.0623048 8,64.5 C8,55.9376952 14.9417888,49 23.5,49 C27.0792528,49 30.3757744,50.2134837 33.000002,52.2517866 C32.9998267,52.1754268 33.0109882,52.0977404 33.0346653,52.0211004 L36.5873654,40.5214257 C36.608135,40.454197 36.6371946,40.3921124 36.672999,40.3359969 L34.5743465,39.693535 C34.1568674,39.5657318 33.9126946,39.0901445 34.0289713,38.631281 C34.1452481,38.1724175 34.5779427,37.9040401 34.9954219,38.0318432 L42.4256535,40.306465 C42.8431326,40.4342682 43.0873054,40.9098555 42.9710287,41.368719 C42.8547519,41.8275825 42.4220573,42.0959599 42.0045781,41.9681568 L37.9999609,40.7422206 C38.000749,40.820506 37.9896315,40.9002538 37.9653347,40.9788996 L36.3396552,46.2410341 L54.1593254,43.8196036 C54.0552232,43.3967939 54,42.9547089 54,42.4996716 C54,42.0565291 54.3574263,41.6972912 54.7983341,41.6972912 C55.2392418,41.6972912 55.5966682,42.0565291 55.5966682,42.4996716 C55.5966682,42.8827532 55.6520737,43.2529619 55.7553356,43.6027293 L60.1435994,43.0064289 C60.309922,42.9838281 60.4703559,43.021816 60.6065138,43.1046573 Z M60.9356816,44.1737046 C60.8310278,44.4346391 60.6075091,44.6302602 60.3309991,44.6678338 L56.6552523,45.1673137 C57.3669855,45.9231012 58.3777936,46.3952391 59.4996713,46.3952391 C60.2135585,46.3952391 60.8825151,46.2040723 61.4580797,45.8703117 L60.9356816,44.1737046 Z M62.718728,44.7039117 C63.1506122,44.0769682 63.4033318,43.3176466 63.4033318,42.4996716 C63.4033318,40.8504458 62.375383,39.4394967 60.9229648,38.8717614 L62.718728,44.7039117 Z M61.938631,47.4310114 C61.2035287,47.7952741 60.3754226,48 59.4996713,48 C57.5331631,48 55.8071103,46.9676834 54.8348538,45.414679 L35.8564006,47.9935711 C35.8363406,47.996297 35.8163662,47.9981415 35.7965098,47.9991322 L34.4126346,52.4785743 C34.3306377,52.7439889 34.1194304,52.9292249 33.8741,52.9835327 C35.9395989,54.8452699 37.5018452,57.2548013 38.3317077,59.9835243 L62.1390146,48.0818029 L61.938631,47.4310114 Z M11,64.5 C11,71.4013151 16.5945615,77 23.5,77 C30.4054385,77 36,71.4013151 36,64.5 C36,57.5986849 30.4054385,52 23.5,52 C16.5945615,52 11,57.5986849 11,64.5 Z M59,64.5 C59,71.4013151 64.5945615,77 71.5,77 C78.4054385,77 84,71.4013151 84,64.5 C84,57.5986849 78.4054385,52 71.5,52 C64.5945615,52 59,57.5986849 59,64.5 Z" id="Combined-Shape" fill="#002936" fill-rule="nonzero"></path>
                    <path d="M59.5531313,4.73808835 C59.8252032,5.49365676 59.9202353,6.34470613 59.8129456,7.21129694 L61,8.79474223 C61,8.79474223 60.880978,9.48766205 59.0703244,9.4194101 C57.9398443,11.3898841 55.8293637,12.403381 53.9379835,11.8497716 C54.0404865,12.5345284 54.0346538,13.4583085 53.7763714,14.6817578 C53.5931167,15.5492365 52.9723786,17.0381089 52.1405119,18.7901131 C52.2808969,19.2244155 52.4325012,19.6797589 52.5950797,20.1529529 C53.4876662,22.7508776 54.5228587,25.3469915 55.6827167,27.7558235 C57.7050119,31.9557941 59.8820752,35.1001114 62.0490275,36.7153094 C63.0772761,37.4817431 63.3075687,38.9615606 62.5634005,40.0205744 C61.8192323,41.0795882 60.3824046,41.3167712 59.354156,40.5503375 C56.4507377,38.386194 53.889366,34.6868229 51.56478,29.8590445 C50.7261482,28.1173457 49.9536664,26.2990347 49.2492284,24.4560568 C47.1232423,28.4286906 45.0588295,32 45.0588295,32 L44.7741069,32 C44.9212581,32.4769169 45,32.9801779 45,33.500315 C45,34.522486 44.6957732,35.4795257 44.165788,36.2995086 L52.4514391,49.2458629 C53.0147727,50.1260733 53.1523842,51.2116111 52.8264077,52.2037728 L46.0460223,72.840962 L48.8322217,74.501085 C49.948165,75.1660062 50.3312287,76.6399272 49.6878185,77.7931796 C49.0444083,78.946432 47.6181705,79.3423026 46.5022272,78.6773814 L43.3361817,76.7909317 C42.6270827,77.0474089 41.8298457,77.0781244 41.0573448,76.8260847 C39.2220278,76.2272857 38.2213304,74.2592324 38.8222246,72.4303147 L45.6651703,51.6027132 L37.4865146,38.8235394 C34.9055164,38.208728 33,36.0584955 33,33.500315 C33,32.9801779 33.0787419,32.4769169 33.2258931,32 L33,32 C33,25.4669274 39.4442684,14.9928565 42.563469,11.8818695 C44.9475746,9.50404191 48.7417363,8.59326018 51.2698215,9.16591616 C50.9840639,8.31825675 50.9179921,7.35709307 51.1066251,6.3917743 L48,7 C49.3792685,1.3897506 54.0376512,-0.663866953 57.4998832,0.183724684 C60.9621152,1.03131632 62,4.25903202 62,4.25903202 L59.5531313,4.73808835 Z" id="Combined-Shape" fill="#002936" fill-rule="nonzero"></path>
                    <rect id="Rectangle-9" fill="#002936" x="4.12836432e-13" y="26" width="31" height="20" rx="3.77938967"></rect>
                    <path d="M8.98301511,41.8389315 C8.97477639,41.7564824 8.97059631,41.6733578 8.97059631,41.5896323 C8.97059631,39.3804933 11.8807454,37.5896323 15.4705963,37.5896323 C19.0604472,37.5896323 21.9705963,39.3804933 21.9705963,41.5896323 C21.9705963,41.6733578 21.9664162,41.7564824 21.9581775,41.8389315 L8.98301511,41.8389315 Z" id="Combined-Shape" fill="#17D6D8" transform="translate(15.411368, 39.923671) rotate(-180.000000) translate(-15.411368, -39.923671) "></path>
                    <path d="M9,34 C9,31.790861 11.9101491,30 15.5,30 C19.0898509,30 22,31.790861 22,34 L9,34 Z" id="Combined-Shape" fill="#17D6D8" transform="translate(15.411368, 31.923671) rotate(-360.000000) translate(-15.411368, -31.923671) "></path>
                    <rect id="Rectangle-2" fill="#17D6D8" x="7" y="36" width="16" height="1" rx="0.5"></rect>
                </g>
            </g>
        </g>
    </g>
</svg>