<?xml version="1.0" encoding="UTF-8"?>
<svg width="100px" height="35px" viewBox="0 0 100 35" version="1.1" xmlns="http://www.w3.org/2000/svg" xmlns:xlink="http://www.w3.org/1999/xlink">
    <!-- Generator: Sketch 50.2 (55047) - http://www.bohemiancoding.com/sketch -->
    <title>steps</title>
    <desc>Created with Sketch.</desc>
    <defs></defs>
    <g id="desk" stroke="none" stroke-width="1" fill="none" fill-rule="evenodd">
        <g id="graphic" transform="translate(-270.000000, -720.000000)">
            <g id="steps" transform="translate(260.000000, 677.000000)">
                <g id="Group-14">
                    <rect id="Rectangle-42" fill="#FF0000" opacity="0" x="0" y="0" width="120" height="120"></rect>
                    <path d="M11.3208378,50.9069134 L24.6801685,50.9069134 L19.5477702,77.6189439 L10.7925027,77.6189439 L14.5663249,57.8802395 L10,57.8802395 L11.3208378,50.9069134 Z M53.1410781,68.9520353 L65.533891,68.9520353 L63.8461538,77.6189439 L37.3245698,77.6189439 L38.6265385,70.5101313 L52.8517517,58.1914353 C55.1342267,56.1788847 56.2754471,54.6208043 56.2754471,53.5171475 C56.2754471,53.0627006 56.0986383,52.7056405 55.7450154,52.4459566 C55.3913926,52.1862726 54.8931132,52.0564326 54.2501625,52.0564326 C52.9964086,52.0564326 51.4935339,52.4459527 49.7414932,53.2250045 C47.9894526,54.0040564 46.1490338,55.0752366 44.2201817,56.4385774 L41.6162443,48.3072643 C47.4349482,44.7690704 52.8035061,43 57.722079,43 C59.8116688,43 61.6681611,43.3327151 63.2916116,43.9981552 C64.9150621,44.6635953 66.176834,45.5968205 67.076965,46.7978588 C67.9770959,47.9988971 68.4271547,49.3784474 68.4271547,50.9365511 C68.4271547,52.9815623 67.6556254,55.0103127 66.1125437,57.0228634 C64.569462,59.035414 62.3191683,61.2751545 59.3615951,63.7421521 L53.1410781,68.9520353 Z M109.056544,55.8606424 L101.773068,61.3859554 L102.942952,61.6526946 C104.477648,62.0083487 105.697838,62.7259971 106.60356,63.8056614 C107.509282,64.8853257 107.962136,66.2253594 107.962136,67.8258029 C107.962136,69.7310928 107.408648,71.4585297 106.301654,73.0081655 C105.194661,74.5578013 103.659988,75.7771685 101.697591,76.6663038 C99.7351937,77.555439 97.5212402,78 95.055664,78 C93.0177898,78 91.0617115,77.6761056 89.1873704,77.028307 C87.3130293,76.3805085 85.8098052,75.5231409 84.6776529,74.4561786 L88.9043338,68.5117039 C90.8667311,70.4932053 93.093264,71.4839412 95.5839991,71.4839412 C98.0495753,71.4839412 99.2823449,70.5440123 99.2823449,68.6641263 C99.2823449,68.0544335 99.0496282,67.5781182 98.5841878,67.235166 C98.1187474,66.8922139 97.4331765,66.7207403 96.5274547,66.7207403 L91.5837475,66.7207403 L92.4517266,62.1480675 L98.4898422,57.2324442 L89.4326689,57.2324442 L90.640292,50.8688078 L110,50.8688078 L109.056544,55.8606424 Z" id="1-2-3" fill="#002936"></path>
                    <polygon id="Path" fill="#17D6D8" points="36.9073527 63.1769189 35.8506824 68.5117039 25.2839802 68.5117039 26.3406504 63.1769189"></polygon>
                    <polygon id="Path" fill="#17D6D8" points="84.6755561 59.1652453 83.3253664 65.981915 69.8234691 65.981915 71.1736588 59.1652453"></polygon>
                </g>
            </g>
        </g>
    </g>
</svg>