<?xml version="1.0" encoding="UTF-8"?>
<svg width="90px" height="90px" viewBox="0 0 90 90" version="1.1" xmlns="http://www.w3.org/2000/svg" xmlns:xlink="http://www.w3.org/1999/xlink">
    <!-- Generator: Sketch 50.2 (55047) - http://www.bohemiancoding.com/sketch -->
    <title>compliance</title>
    <desc>Created with Sketch.</desc>
    <defs></defs>
    <g id="desk" stroke="none" stroke-width="1" fill="none" fill-rule="evenodd">
        <g id="graphic" transform="translate(-97.000000, -346.000000)">
            <g id="compliance" transform="translate(82.000000, 331.000000)">
                <rect id="Rectangle-42" fill="#FF0000" opacity="0" x="0" y="0" width="120" height="120"></rect>
                <g transform="translate(15.000000, 15.000000)">
                    <rect id="Rectangle-7" fill="#002936" x="0" y="0" width="90" height="90" rx="45"></rect>
                    <path d="M46,29 C48.9345238,32.1880452 51.8690476,33.7820678 54.8035714,33.7820678 C57.7380952,33.7820678 60.4702381,32.1880452 63,29 C63,36.0020736 63,42.335407 63,48 C63,53.664593 57.3333333,59.9979264 46,67 C34.6666667,59.9979264 29,53.664593 29,48 C29,42.335407 29,36.0020736 29,29 C31.5297619,32.1880452 34.2619048,33.7820678 37.1964286,33.7820678 C40.1309524,33.7820678 43.0654762,32.1880452 46,29 Z" id="Combined-Shape" fill="#17D6D8"></path>
                    <polyline id="Path-29" stroke="#FFFFFF" stroke-width="3" points="41 49.8129738 43.3805595 52 51 45"></polyline>
                </g>
            </g>
        </g>
    </g>
</svg>