<?xml version="1.0" encoding="UTF-8"?>
<svg width="95px" height="65px" viewBox="0 0 95 65" version="1.1" xmlns="http://www.w3.org/2000/svg" xmlns:xlink="http://www.w3.org/1999/xlink">
    <!-- Generator: Sketch 50.2 (55047) - http://www.bohemiancoding.com/sketch -->
    <title>currencies</title>
    <desc>Created with Sketch.</desc>
    <defs></defs>
    <g id="desk" stroke="none" stroke-width="1" fill="none" fill-rule="evenodd">
        <g id="graphic" transform="translate(-468.000000, -169.000000)">
            <g id="currencies" transform="translate(454.000000, 140.000000)">
                <g id="Group" fill="#FF0000" opacity="0">
                    <rect id="Rectangle-42" x="0" y="0" width="120" height="120"></rect>
                </g>
                <g transform="translate(10.000000, 27.000000)">
                    <rect id="Combined-Shape" fill="#002936" transform="translate(80.202057, 21.457941) rotate(-345.000000) translate(-80.202057, -21.457941) " x="64.1642757" y="5.25994043" width="31.9327731" height="32.6625" rx="5.36823654"></rect>
                    <path d="M80.5391597,20.4855032 C80.4745598,20.8518671 80.5971948,21.1619074 80.9070683,21.4156334 C81.2169418,21.6693593 81.7124111,21.9634649 82.3934911,22.2979589 C83.0745711,22.632453 83.6285421,22.9445311 84.0554208,23.2342026 C84.4822996,23.5238741 84.8235522,23.9056432 85.079189,24.3795214 C85.3348258,24.8533996 85.4024082,25.4319396 85.2819382,26.1151588 C85.1282953,26.9865108 84.7068987,27.6421815 84.0177356,28.0821906 C83.3285725,28.5221997 82.4850628,28.7154821 81.4871811,28.6620437 L81.1074407,30.8156586 L79.3878525,30.5124488 L79.7675929,28.3588339 C79.0755303,28.1449183 78.4299699,27.8422141 77.8308922,27.4507122 C77.2318146,27.0592103 76.7206042,26.6066353 76.2972459,26.0929737 L77.5771192,24.3431052 C78.0216539,24.9115487 78.5625163,25.3999805 79.1997227,25.8084151 C79.8369291,26.2168497 80.4396306,26.471159 81.0078452,26.5713506 C81.4963104,26.6574802 81.8933198,26.6355988 82.1988854,26.5057057 C82.5044509,26.3758126 82.686912,26.1425402 82.746274,25.8058815 C82.7934144,25.5385349 82.7400522,25.3019658 82.5861856,25.0961673 C82.4323191,24.8903687 82.222938,24.7079648 81.958036,24.54895 C81.6931341,24.3899352 81.3236933,24.197175 80.8497027,23.9706634 C80.1668767,23.6460711 79.6161441,23.3447735 79.1974881,23.0667614 C78.7788321,22.7887494 78.4408178,22.4177607 78.1834351,21.9537843 C77.9260523,21.4898078 77.856724,20.9211693 77.9754481,20.2478519 C78.1186153,19.4359102 78.5193849,18.809783 79.177769,18.3694516 C79.8361531,17.9291201 80.6560509,17.7240172 81.6374871,17.7541367 L81.9936575,15.7341944 L83.7132457,16.0374042 L83.3596942,18.042494 C83.9455933,18.2172709 84.4960867,18.4470604 85.0111911,18.7318692 C85.5262954,19.0166781 85.9728513,19.3404443 86.3508721,19.7031775 L85.0956669,21.4880243 C84.6149744,21.0663489 84.0901065,20.705803 83.5210474,20.4063756 C82.9519883,20.1069483 82.4531396,19.9194458 82.0244865,19.8438627 C81.6157707,19.7717951 81.2786992,19.788931 81.0132619,19.895271 C80.7478245,20.001611 80.589792,20.1983531 80.5391597,20.4855032 Z" id="$" fill="#FFFFFF"></path>
                    <g id="Group-19" transform="translate(21.331860, 22.097365) rotate(-22.000000) translate(-21.331860, -22.097365) translate(4.945306, 5.766115)">
                        <g id="Group-11" transform="translate(0.000000, -0.000000)">
                            <ellipse id="Combined-Shape" fill="#002936" cx="16.084311" cy="15.6216118" rx="15.9663866" ry="15.9125"></ellipse>
                            <path d="M15.2730238,20.3805224 C15.6884136,20.5483508 16.1593223,20.617745 16.6857641,20.5887073 C17.2122058,20.5596696 17.7240202,20.4368237 18.2212225,20.2201659 L18.8756556,22.1492339 C18.170488,22.4906385 17.4098884,22.6832787 16.5938338,22.7271602 C15.7777792,22.7710416 15.0221001,22.6525191 14.3267736,22.3715889 C13.5501752,22.0578228 12.8962081,21.6095583 12.3648527,21.0267818 C11.8334972,20.4440053 11.4510933,19.7785739 11.2176295,19.0304679 C10.9841656,18.2823618 10.9240647,17.5081659 11.0373249,16.707857 L9.75052589,16.1879564 L10.1169005,15.2811474 L11.2547017,15.740849 C11.2838357,15.6427408 11.3384744,15.4945062 11.4186192,15.2961407 C11.4758655,15.1544511 11.5242688,15.0476482 11.5638303,14.9757288 L10.4260291,14.5160273 L10.7924037,13.6092183 L12.0521122,14.1181735 C12.5213672,13.4507079 13.1062182,12.9261018 13.8066828,12.5443394 C14.5071474,12.162577 15.2631381,11.9488461 16.0746775,11.9031404 C16.886217,11.8574348 17.6938191,11.9969356 18.4975081,12.321647 C19.1838044,12.5989287 19.8019066,13.0189682 20.3518333,13.5817782 C20.9017601,14.1445882 21.3084595,14.7758846 21.5719439,15.4756863 L19.6981703,16.5645921 C19.5243421,16.0328687 19.2629428,15.5619141 18.9139647,15.151714 C18.5649865,14.7415139 18.1737782,14.4488556 17.7403279,14.2737303 C17.1353036,14.0292846 16.5257585,13.9780449 15.9116742,14.1200095 C15.2975899,14.2619741 14.7696087,14.5678268 14.3277147,15.0375766 L17.5785753,16.3510096 L17.2122007,17.2578186 L13.7581613,15.8622961 C13.7224161,15.9247695 13.6778292,16.0221265 13.6243993,16.1543702 C13.5824187,16.2582759 13.5284788,16.4177805 13.4625779,16.6328888 L16.9030721,18.0229387 L16.5366975,18.9297477 L13.3671084,17.6491506 C13.3958072,18.2540928 13.5784074,18.803088 13.9149146,19.2961528 C14.2514218,19.7892175 14.7041203,20.1506705 15.2730238,20.3805224 Z" id="€" fill="#FFFFFF"></path>
                        </g>
                    </g>
                    <path d="M54.7538404,21.5472125 L57.9786199,64.4829352 C58.0652894,65.6368804 56.9044675,66.4803684 55.8262837,66.0468873 L20.3093434,51.7673896 C19.2311596,51.3339085 18.984954,49.9247286 19.8528416,49.1545607 L52.1450024,20.4983357 C53.1154226,19.6371799 54.6569317,20.2569398 54.7538404,21.5472125 Z" id="Combined-Shape" fill="#002936" fill-rule="nonzero"></path>
                    <path d="M45.2312435,49.7870484 L48.9596713,48.2806658 L49.6543979,50.0001746 L42.5914894,52.8537749 L41.8967628,51.1342661 L42.9941868,50.690878 L41.9437601,48.0909806 L40.8463361,48.5343687 L40.490636,47.6539802 L41.5880601,47.2105921 L41.0433944,45.8624972 C40.6358193,44.8537136 40.6013414,43.95823 40.9399595,43.1760194 C41.2785776,42.3938088 41.9637621,41.7942812 42.9955334,41.3774185 C43.5583178,41.1500388 44.1322932,41.0381483 44.7174769,41.0417436 C45.3026605,41.0453388 45.8653384,41.1620326 46.4055272,41.3918284 L46.2282925,43.3836246 C45.353569,43.0009598 44.6113769,42.9327924 44.0016938,43.1791204 C43.598365,43.3420758 43.3356452,43.5762328 43.2135265,43.8815984 C43.0914078,44.186964 43.1192735,44.5597394 43.2971245,44.9999358 L43.8251167,46.3067626 L46.2169383,45.3404039 L46.5726384,46.2207924 L44.1808168,47.1871511 L45.2312435,49.7870484 Z" id="£" fill="#17D6D8"></path>
                </g>
            </g>
        </g>
    </g>
</svg>