<?xml version="1.0" encoding="UTF-8"?>
<svg width="100px" height="40px" viewBox="0 0 100 40" version="1.1" xmlns="http://www.w3.org/2000/svg" xmlns:xlink="http://www.w3.org/1999/xlink">
    <!-- Generator: Sketch 50.2 (55047) - http://www.bohemiancoding.com/sketch -->
    <title>humansupport</title>
    <desc>Created with Sketch.</desc>
    <defs></defs>
    <g id="desk" stroke="none" stroke-width="1" fill="none" fill-rule="evenodd">
        <g id="graphic" transform="translate(-277.000000, -120.000000)">
            <g id="humansupport" transform="translate(267.000000, 80.000000)">
                <g id="Group" fill="#FF0000" opacity="0">
                    <rect id="Rectangle-42" x="0" y="0" width="120" height="120"></rect>
                </g>
                <g transform="translate(10.000000, 40.000000)" id="Group-39">
                    <g>
                        <g id="f-humansupport">
                            <g id="Group-8" transform="translate(0.000000, 0.116845)">
                                <g id="Group-33" transform="translate(0.000000, -0.000000)">
                                    <rect id="Combined-Shape" fill="#002936" x="0" y="-1.42108547e-14" width="99.8766634" height="39.2599805" rx="19.6299903"></rect>
                                    <path d="M59.1820837,25.6280428 C55.6686851,25.6280428 52.8205128,22.8379965 52.8205128,19.3962999 C52.8205128,15.9546033 55.6686851,13.164557 59.1820837,13.164557 C62.6954823,13.164557 65.5436547,15.9546033 65.5436547,19.3962999 C65.5436547,22.8379965 62.6954823,25.6280428 59.1820837,25.6280428 Z M56.3193768,20.0194742 C56.8463866,20.0194742 57.2736125,19.4614649 57.2736125,18.7731256 C57.2736125,18.0847863 56.8463866,17.526777 56.3193768,17.526777 C55.792367,17.526777 55.3651412,18.0847863 55.3651412,18.7731256 C55.3651412,19.4614649 55.792367,20.0194742 56.3193768,20.0194742 Z M60.1363194,20.0194742 C60.6633292,20.0194742 61.090555,19.4614649 61.090555,18.7731256 C61.090555,18.0847863 60.6633292,17.526777 60.1363194,17.526777 C59.6093096,17.526777 59.1820837,18.0847863 59.1820837,18.7731256 C59.1820837,19.4614649 59.6093096,20.0194742 60.1363194,20.0194742 Z M56.0012983,21.8889971 C56.680013,23.1353457 57.4340793,23.75852 58.2634972,23.75852 C59.0929151,23.75852 60.0352677,23.1353457 61.090555,21.8889971 L56.0012983,21.8889971 Z" id="Combined-Shape" fill="#17D6D8"></path>
                                    <g id="Group-3" transform="translate(34.358974, 13.670886)" fill="#FFFFFF">
                                        <polygon id="Hiya!" points="0 1.51898734 2.22303237 1.51898734 2.22303237 5.67823063 6.68316692 5.67823063 6.68316692 1.51898734 8.90619929 1.51898734 8.90619929 11.489776 6.68316692 11.489776 6.68316692 7.5584365 2.22303237 7.5584365 2.22303237 11.489776 0 11.489776"></polygon>
                                        <polygon id="Hiya!" points="11.2820513 3.5443038 13.3333333 3.5443038 13.3333333 11.5819804 11.2820513 11.5819804"></polygon>
                                        <path d="M12.3015507,0 C12.604536,0 12.8522433,0.0941998234 13.0446799,0.282602296 C13.2371165,0.471004769 13.3333333,0.714354313 13.3333333,1.01265823 C13.3333333,1.31096214 13.2371165,1.55431169 13.0446799,1.74271416 C12.8522433,1.93111663 12.604536,2.02531646 12.3015507,2.02531646 C12.0067542,2.02531646 11.7631413,1.92915414 11.5707047,1.73682661 C11.3782681,1.54449909 11.2820513,1.30311204 11.2820513,1.01265823 C11.2820513,0.714354313 11.3782681,0.471004769 11.5707047,0.282602296 C11.7631413,0.0941998234 12.0067542,0 12.3015507,0 Z" id="Hiya!"></path>
                                    </g>
                                </g>
                            </g>
                        </g>
                    </g>
                </g>
            </g>
        </g>
    </g>
</svg>