<?xml version="1.0" encoding="UTF-8"?>
<svg width="450px" height="393px" viewBox="0 0 450 393" version="1.1" xmlns="http://www.w3.org/2000/svg" xmlns:xlink="http://www.w3.org/1999/xlink">
    <!-- Generator: Sketch 50.2 (55047) - http://www.bohemiancoding.com/sketch -->
    <title>Group 25</title>
    <desc>Created with Sketch.</desc>
    <defs></defs>
    <g id="desk" stroke="none" stroke-width="1" fill="none" fill-rule="evenodd">
        <g id="Docs-graphics" transform="translate(-399.000000, -2626.000000)">
            <g id="Group-25" transform="translate(399.000000, 2626.000000)">
                <rect id="Rectangle-4" fill="#F0F6F8" x="0" y="82.8032787" width="67.2131148" height="284.42623" rx="4.09836066"></rect>
                <ellipse id="Oval-21" fill="#002936" fill-rule="nonzero" cx="48.7704918" cy="205.754098" rx="1.2295082" ry="2.45901639"></ellipse>
                <path d="M28.7062375,213.86272 C29.3109222,216.345315 30.6506166,217.768874 32.6742186,218.014369 C34.686194,218.258455 36.3570754,217.216049 37.6258106,214.978652 C37.7825811,214.702189 37.6991119,214.342799 37.4393768,214.175933 C37.1796416,214.009066 36.841997,214.097911 36.6852264,214.374373 C35.6244292,216.245074 34.3492482,217.040616 32.7986312,216.852501 C31.259641,216.665796 30.2670358,215.611054 29.7697143,213.56925 C29.6935782,213.256666 29.3937904,213.068962 29.1001194,213.150001 C28.8064484,213.231041 28.6301015,213.550136 28.7062375,213.86272 Z" id="Path-27" fill="#002936" fill-rule="nonzero"></path>
                <g id="Group-24" transform="translate(70.491803, 177.065574)" fill="#002936" fill-rule="nonzero">
                    <path d="M12.4629952,1.61359265 L16.5291972,4.82764877 C16.716339,4.97557096 16.9835589,4.93799442 17.1260495,4.74371856 C17.2685402,4.54944181 17.2323433,4.2720351 17.0452016,4.12411203 L12.9789995,0.910056789 C12.7918578,0.762133719 12.5246379,0.799710255 12.3821472,0.993987005 C12.2396565,1.18826287 12.2758534,1.46567047 12.4629952,1.61359265 Z M20.6597165,7.35129762 L24.7259184,10.565353 C24.9130602,10.7132761 25.1802799,10.6756996 25.3227709,10.4814228 C25.4652618,10.2871469 25.4290643,10.0097402 25.2419228,9.86181714 L21.1757208,6.64776171 C20.988579,6.49983863 20.7213592,6.53741517 20.5788685,6.73169193 C20.4363778,6.92596781 20.4725748,7.20337454 20.6597165,7.35129762 Z M28.036766,13.9086749 L32.1029676,17.1227301 C32.2901091,17.2706532 32.5573295,17.2330766 32.6998204,17.0387999 C32.8423104,16.844524 32.8061138,16.5671164 32.6189723,16.4191942 L28.5527699,13.2051381 C28.3656284,13.0572159 28.0984088,13.0947925 27.9559179,13.2890683 C27.813427,13.4833451 27.8496236,13.7607518 28.036766,13.9086749 Z M36.2334865,19.6463792 L40.2996891,22.8604353 C40.4868306,23.0083583 40.754051,22.9707809 40.8965411,22.7765051 C41.039032,22.5822292 41.0028354,22.3048216 40.815693,22.1568986 L36.7494913,18.9428434 C36.5623498,18.7949203 36.2951294,18.8324978 36.1526393,19.0267736 C36.0101484,19.2210495 36.046345,19.4984571 36.2334865,19.6463792 Z M44.430208,25.3840845 L48.4964107,28.5981406 C48.6835522,28.7460628 48.9507717,28.7084862 49.0932626,28.5142104 C49.2357536,28.3199336 49.1995561,28.0425269 49.0124146,27.8946038 L44.9462128,24.6805486 C44.7590704,24.5326255 44.4918509,24.5702021 44.3493599,24.7644788 C44.2068699,24.9587547 44.2430665,25.2361614 44.430208,25.3840845 Z M51.8072575,31.1217895 L55.8734594,34.3358448 C56.0606017,34.4837679 56.3278213,34.4461914 56.4703122,34.2519146 C56.6128023,34.0576388 56.5766056,33.780232 56.3894641,33.632309 L52.3232614,30.4182536 C52.1361199,30.2703305 51.8689004,30.307907 51.7264095,30.5021829 C51.5839186,30.6964597 51.620116,30.9738664 51.8072575,31.1217895 Z" id="Path-30"></path>
                    <path d="M56.6873455,61.5671003 L52.6251869,64.7878981 C52.4382317,64.9361307 52.4038709,65.211696 52.5484409,65.4033887 C52.69301,65.5950823 52.961765,65.630313 53.1487201,65.4820804 L57.2108779,62.2612826 C57.3978339,62.11305 57.4321948,61.8374847 57.2876248,61.645792 C57.1430547,61.4540984 56.8743007,61.4188668 56.6873455,61.5671003 Z M49.3102958,67.3048046 L45.2481382,70.5256025 C45.0611821,70.673836 45.0268221,70.9494004 45.1713913,71.141094 C45.3159613,71.3327868 45.5847153,71.3680184 45.7716714,71.2197849 L49.833829,67.9989878 C50.0207851,67.8507543 50.0551451,67.5751899 49.9105759,67.3834963 C49.7660059,67.1918036 49.4972519,67.156572 49.3102958,67.3048046 Z M41.113575,73.8621823 L37.0514172,77.0829801 C36.8644612,77.2312127 36.8301003,77.506778 36.9746703,77.6984707 C37.1192395,77.8901642 37.3879944,77.925395 37.5749496,77.7771624 L41.6371082,74.5563646 C41.8240633,74.408132 41.8584242,74.1325667 41.7138542,73.940874 C41.569285,73.7491804 41.3005301,73.7139488 41.113575,73.8621823 Z M33.7365253,79.5998866 L29.6743674,82.8206845 C29.4874122,82.968918 29.4530514,83.2444824 29.5976205,83.436176 C29.7421905,83.6278687 30.0109446,83.6631003 30.1979007,83.5148668 L34.2600585,80.2940698 C34.4470146,80.1458363 34.4813746,79.8702719 34.3368054,79.6785783 C34.1922354,79.4868855 33.9234814,79.451654 33.7365253,79.5998866 Z M25.5398044,85.3375921 L21.4776463,88.5583899 C21.2906906,88.7066225 21.25633,88.9821878 21.4008996,89.1738805 C21.5454693,89.3655741 21.8142237,89.4008048 22.0011793,89.2525722 L26.0633377,86.0317744 C26.2502929,85.8835409 26.2846537,85.6079765 26.1400837,85.4162838 C25.9955145,85.2245902 25.7267605,85.1893586 25.5398044,85.3375921 Z M18.1627551,91.0752964 L14.1005971,94.2960943 C13.9136415,94.4443278 13.8792809,94.7198923 14.0238504,94.9115858 C14.1684201,95.1032786 14.4371745,95.1385102 14.6241301,94.9902767 L18.6862881,91.7694796 C18.8732438,91.6212461 18.9076044,91.3456817 18.7630347,91.1539881 C18.6184652,90.9622954 18.3497108,90.9270638 18.1627551,91.0752964 Z" id="Path-30"></path>
                    <path d="M55.3278689,48.3606557 L50.4098361,48.3606557 C50.1834902,48.3606557 50,48.5441459 50,48.7704918 C50,48.9968377 50.1834902,49.1803279 50.4098361,49.1803279 L55.3278689,49.1803279 C55.5542148,49.1803279 55.7377049,48.9968377 55.7377049,48.7704918 C55.7377049,48.5441459 55.5542148,48.3606557 55.3278689,48.3606557 Z M45.4918033,48.3606557 L40.5737705,48.3606557 C40.3474246,48.3606557 40.1639344,48.5441459 40.1639344,48.7704918 C40.1639344,48.9968377 40.3474246,49.1803279 40.5737705,49.1803279 L45.4918033,49.1803279 C45.7181492,49.1803279 45.9016393,48.9968377 45.9016393,48.7704918 C45.9016393,48.5441459 45.7181492,48.3606557 45.4918033,48.3606557 Z M35.6557377,48.3606557 L30.7377049,48.3606557 C30.511359,48.3606557 30.3278689,48.5441459 30.3278689,48.7704918 C30.3278689,48.9968377 30.511359,49.1803279 30.7377049,49.1803279 L35.6557377,49.1803279 C35.8820836,49.1803279 36.0655738,48.9968377 36.0655738,48.7704918 C36.0655738,48.5441459 35.8820836,48.3606557 35.6557377,48.3606557 Z M25.8196721,48.3606557 L20.9016393,48.3606557 C20.6752931,48.3606557 20.4918033,48.5441459 20.4918033,48.7704918 C20.4918033,48.9968377 20.6752931,49.1803279 20.9016393,49.1803279 L25.8196721,49.1803279 C26.046018,49.1803279 26.2295082,48.9968377 26.2295082,48.7704918 C26.2295082,48.5441459 26.046018,48.3606557 25.8196721,48.3606557 Z M15.9836066,48.3606557 L11.0655738,48.3606557 C10.8392275,48.3606557 10.6557377,48.5441459 10.6557377,48.7704918 C10.6557377,48.9968377 10.8392275,49.1803279 11.0655738,49.1803279 L15.9836066,49.1803279 C16.2099527,49.1803279 16.3934426,48.9968377 16.3934426,48.7704918 C16.3934426,48.5441459 16.2099527,48.3606557 15.9836066,48.3606557 Z M6.1240542,48.3606557 L1.25299498,48.3606557 C1.01367744,48.3606557 0.819672131,48.5441459 0.819672131,48.7704918 C0.819672131,48.9968377 1.01367744,49.1803279 1.25299498,49.1803279 L6.1240542,49.1803279 C6.36337174,49.1803279 6.55737705,48.9968377 6.55737705,48.7704918 C6.55737705,48.5441459 6.36337174,48.3606557 6.1240542,48.3606557 Z" id="Path-30"></path>
                    <polygon id="Triangle-2" transform="translate(68.304993, 46.473553) rotate(88.000000) translate(-68.304993, -46.473553) " points="68.3869603 39.260438 81.0918783 54.0145363 55.6820422 54.0145363"></polygon>
                </g>
                <g id="Group-30" transform="translate(9.836066, 117.229508)">
                    <g id="Group-23">
                        <g id="seller">
                            <rect id="Rectangle-7" fill="#002936" x="0" y="0" width="48.3606557" height="49.1803279" rx="24.1803279"></rect>
                            <path d="M28.6885246,17.6229508 C28.6885246,20.5657104 26.4868852,22.9508197 23.7704918,22.9508197 C21.0540984,22.9508197 18.852459,20.5657104 18.852459,17.6229508 C18.852459,14.6801913 21.0540984,12.295082 23.7704918,12.295082 C26.4868852,12.295082 28.6885246,14.6801913 28.6885246,17.6229508 Z" id="Stroke-103" fill="#FFFFFF"></path>
                            <path d="M33.6065574,36.8852459 L13.1147541,36.8852459 C13.1147541,32.3590164 16.9364754,28.6885246 21.6530055,28.6885246 L25.068306,28.6885246 C29.7848361,28.6885246 33.6065574,32.3590164 33.6065574,36.8852459 Z" id="Stroke-104" fill="#FFFFFF"></path>
                        </g>
                    </g>
                    <g id="seller" transform="translate(0.000000, 167.213115)">
                        <rect id="Rectangle-7" fill="#002936" x="0" y="0" width="48.3606557" height="49.1803279" rx="24.1803279"></rect>
                        <path d="M28.6885246,17.6229508 C28.6885246,20.5657104 26.4868852,22.9508197 23.7704918,22.9508197 C21.0540984,22.9508197 18.852459,20.5657104 18.852459,17.6229508 C18.852459,14.6801913 21.0540984,12.295082 23.7704918,12.295082 C26.4868852,12.295082 28.6885246,14.6801913 28.6885246,17.6229508 Z" id="Stroke-103" fill="#FFFFFF"></path>
                        <path d="M33.6065574,36.8852459 L13.1147541,36.8852459 C13.1147541,32.3590164 16.9364754,28.6885246 21.6530055,28.6885246 L25.068306,28.6885246 C29.7848361,28.6885246 33.6065574,32.3590164 33.6065574,36.8852459 Z" id="Stroke-104" fill="#FFFFFF"></path>
                    </g>
                    <g id="seller" transform="translate(0.000000, 83.606557)">
                        <rect id="Rectangle-7" fill="#002936" x="0" y="0" width="48.3606557" height="49.1803279" rx="24.1803279"></rect>
                        <path d="M28.6885246,17.6229508 C28.6885246,20.5657104 26.4868852,22.9508197 23.7704918,22.9508197 C21.0540984,22.9508197 18.852459,20.5657104 18.852459,17.6229508 C18.852459,14.6801913 21.0540984,12.295082 23.7704918,12.295082 C26.4868852,12.295082 28.6885246,14.6801913 28.6885246,17.6229508 Z" id="Stroke-103" fill="#FFFFFF"></path>
                        <path d="M33.6065574,36.8852459 L13.1147541,36.8852459 C13.1147541,32.3590164 16.9364754,28.6885246 21.6530055,28.6885246 L25.068306,28.6885246 C29.7848361,28.6885246 33.6065574,32.3590164 33.6065574,36.8852459 Z" id="Stroke-104" fill="#FFFFFF"></path>
                    </g>
                </g>
                <rect id="Rectangle-4" fill="#F0F6F8" x="146.721311" y="82.8032787" width="303.278689" height="284.42623" rx="4.09836066"></rect>
                <g id="Group-32" transform="translate(172.131148, 219.688525)" fill="#FFFFFF" fill-rule="nonzero">
                    <rect id="Rectangle-37" x="3.46944695e-18" y="-5.55111512e-17" width="6.55737705" height="8.19672131" rx="0.901639344"></rect>
                    <rect id="Rectangle-38" x="9.01639344" y="-5.55111512e-17" width="11.4754098" height="8.19672131" rx="0.901639344"></rect>
                </g>
                <path d="M416.393442,129.52459 L433.606557,138.540984 L399.180328,138.540984 L416.393442,129.52459 Z M422.95082,150.016393 L422.95082,138.540984 L428.688525,138.540984 L428.688525,150.016393 L432.786885,150.016393 L432.786885,154.114754 L399.180328,154.114754 L399.180328,150.016393 L404.098361,150.016393 L404.098361,138.540984 L409.836066,138.540984 L409.836066,150.016393 L413.114754,150.016393 L413.114754,138.540984 L418.852459,138.540984 L418.852459,150.016393 L422.95082,150.016393 Z" id="path-7" fill="#002936"></path>
                <path d="M416.393442,213.131148 L433.606557,222.147541 L399.180328,222.147541 L416.393442,213.131148 Z M422.95082,233.622951 L422.95082,222.147541 L428.688525,222.147541 L428.688525,233.622951 L432.786885,233.622951 L432.786885,237.721311 L399.180328,237.721311 L399.180328,233.622951 L404.098361,233.622951 L404.098361,222.147541 L409.836066,222.147541 L409.836066,233.622951 L413.114754,233.622951 L413.114754,222.147541 L418.852459,222.147541 L418.852459,233.622951 L422.95082,233.622951 Z" id="path-9" fill="#002936"></path>
                <path d="M357.786885,227.065574 L362.704918,227.065574 C362.931265,227.065574 363.114754,226.882084 363.114754,226.655738 C363.114754,226.429391 362.931265,226.245902 362.704918,226.245902 L357.786885,226.245902 C357.560539,226.245902 357.377049,226.429391 357.377049,226.655738 C357.377049,226.882084 357.560539,227.065574 357.786885,227.065574 Z M367.622951,227.065574 L372.540984,227.065574 C372.76733,227.065574 372.95082,226.882084 372.95082,226.655738 C372.95082,226.429391 372.76733,226.245902 372.540984,226.245902 L367.622951,226.245902 C367.396605,226.245902 367.213115,226.429391 367.213115,226.655738 C367.213115,226.882084 367.396605,227.065574 367.622951,227.065574 Z M377.465059,227.065574 L381.551335,227.065574 C381.781018,227.065574 381.967213,226.882084 381.967213,226.655738 C381.967213,226.429391 381.781018,226.245902 381.551335,226.245902 L377.465059,226.245902 C377.235376,226.245902 377.04918,226.429391 377.04918,226.655738 C377.04918,226.882084 377.235376,227.065574 377.465059,227.065574 Z" id="Line-4" fill="#002936" fill-rule="nonzero"></path>
                <polygon id="Triangle-2" fill="#002936" fill-rule="nonzero" transform="translate(380.858527, 225.703298) rotate(-180.000000) translate(-380.858527, -225.703298) " points="376.229508 225.836066 385.245902 218.04918 385.245902 233.622951"></polygon>
                <path d="M357.786885,142.639344 L362.704918,142.639344 C362.931265,142.639344 363.114754,142.455854 363.114754,142.229508 C363.114754,142.003162 362.931265,141.819672 362.704918,141.819672 L357.786885,141.819672 C357.560539,141.819672 357.377049,142.003162 357.377049,142.229508 C357.377049,142.455854 357.560539,142.639344 357.786885,142.639344 Z M367.622951,142.639344 L372.540984,142.639344 C372.76733,142.639344 372.95082,142.455854 372.95082,142.229508 C372.95082,142.003162 372.76733,141.819672 372.540984,141.819672 L367.622951,141.819672 C367.396605,141.819672 367.213115,142.003162 367.213115,142.229508 C367.213115,142.455854 367.396605,142.639344 367.622951,142.639344 Z M377.465059,142.639344 L381.551335,142.639344 C381.781018,142.639344 381.967213,142.455854 381.967213,142.229508 C381.967213,142.003162 381.781018,141.819672 381.551335,141.819672 L377.465059,141.819672 C377.235376,141.819672 377.04918,142.003162 377.04918,142.229508 C377.04918,142.455854 377.235376,142.639344 377.465059,142.639344 Z" id="Line-4" fill="#002936" fill-rule="nonzero"></path>
                <polygon id="Triangle-2" fill="#002936" fill-rule="nonzero" transform="translate(380.858527, 142.096740) rotate(-180.000000) translate(-380.858527, -142.096740) " points="376.229508 142.229508 385.245902 134.442623 385.245902 150.016393"></polygon>
                <path d="M416.393442,296.737705 L433.606557,305.754098 L399.180328,305.754098 L416.393442,296.737705 Z M422.95082,317.229508 L422.95082,305.754098 L428.688525,305.754098 L428.688525,317.229508 L432.786885,317.229508 L432.786885,321.327869 L399.180328,321.327869 L399.180328,317.229508 L404.098361,317.229508 L404.098361,305.754098 L409.836066,305.754098 L409.836066,317.229508 L413.114754,317.229508 L413.114754,305.754098 L418.852459,305.754098 L418.852459,317.229508 L422.95082,317.229508 Z" id="path-11" fill="#002936"></path>
                <path d="M357.786885,309.852459 L362.704918,309.852459 C362.931265,309.852459 363.114754,309.668969 363.114754,309.442623 C363.114754,309.216276 362.931265,309.032787 362.704918,309.032787 L357.786885,309.032787 C357.560539,309.032787 357.377049,309.216276 357.377049,309.442623 C357.377049,309.668969 357.560539,309.852459 357.786885,309.852459 Z M367.622951,309.852459 L372.540984,309.852459 C372.76733,309.852459 372.95082,309.668969 372.95082,309.442623 C372.95082,309.216276 372.76733,309.032787 372.540984,309.032787 L367.622951,309.032787 C367.396605,309.032787 367.213115,309.216276 367.213115,309.442623 C367.213115,309.668969 367.396605,309.852459 367.622951,309.852459 Z M377.465059,309.852459 L381.551335,309.852459 C381.781018,309.852459 381.967213,309.668969 381.967213,309.442623 C381.967213,309.216276 381.781018,309.032787 381.551335,309.032787 L377.465059,309.032787 C377.235376,309.032787 377.04918,309.216276 377.04918,309.442623 C377.04918,309.668969 377.235376,309.852459 377.465059,309.852459 Z" id="Line-4" fill="#002936" fill-rule="nonzero"></path>
                <polygon id="Triangle-2" fill="#002936" fill-rule="nonzero" transform="translate(380.858527, 309.309855) rotate(-180.000000) translate(-380.858527, -309.309855) " points="376.229508 309.442623 385.245902 301.655738 385.245902 317.229508"></polygon>
                <g id="Group-31" transform="translate(209.016393, 177.065574)" fill="#002936" fill-rule="nonzero">
                    <path d="M19.0203719,1.89842357 L23.0865746,5.1124797 C23.2737161,5.26040188 23.5409357,5.22282534 23.6834266,5.02854948 C23.8259175,4.83427273 23.78972,4.55686602 23.6025785,4.40894295 L19.5363767,1.19488771 C19.3492343,1.04696464 19.0820148,1.08454118 18.9395239,1.27881793 C18.7970338,1.47309379 18.8332304,1.75050139 19.0203719,1.89842357 Z M27.2170936,7.63612876 L31.2832954,10.8501842 C31.4704378,10.9981073 31.7376573,10.9605307 31.8801483,10.766254 C32.0226383,10.5719781 31.9864417,10.2945714 31.7993002,10.1466483 L27.7330975,6.93259286 C27.545956,6.78466978 27.2787365,6.82224632 27.1362455,7.01652308 C26.9937546,7.21079896 27.0299521,7.48820568 27.2170936,7.63612876 Z M34.594143,13.3738337 L38.6603448,16.5878889 C38.8474863,16.735812 39.1147067,16.6982354 39.2571968,16.5039587 C39.3996877,16.3096828 39.3634911,16.0322752 39.1763496,15.884353 L35.1101469,12.6702969 C34.9230054,12.5223747 34.655785,12.5599513 34.513295,12.7542271 C34.3708041,12.9485039 34.4070007,13.2259106 34.594143,13.3738337 Z M42.7908637,19.1115379 L46.8570662,22.325594 C47.0442077,22.473517 47.3114272,22.4359396 47.4539181,22.2416638 C47.596409,22.0473879 47.5602124,21.7699803 47.3730701,21.6220572 L43.3068685,18.4080021 C43.119727,18.260079 42.8525066,18.2976564 42.7100157,18.4919323 C42.5675256,18.6862082 42.6037222,18.9636158 42.7908637,19.1115379 Z M50.1679133,25.6689154 L54.2341148,28.8829715 C54.4212571,29.0308937 54.6884767,28.9933171 54.8309676,28.7990413 C54.9734585,28.6047645 54.937261,28.3273578 54.7501195,28.1794348 L50.683918,24.9653795 C50.4967756,24.8174564 50.2295561,24.855033 50.0870652,25.0493097 C49.9445743,25.2435856 49.9807718,25.5209923 50.1679133,25.6689154 Z M58.3646346,31.4066206 L62.4308364,34.6206759 C62.6179788,34.768599 62.8851983,34.7310225 63.0276892,34.5367457 C63.1701793,34.3424698 63.1339827,34.0650631 62.9468412,33.91714 L58.8806385,30.7030847 C58.693497,30.5551616 58.4262774,30.5927381 58.2837865,30.787014 C58.1412956,30.9812908 58.1774931,31.2586975 58.3646346,31.4066206 Z" id="Path-30" transform="translate(40.783277, 17.615695) scale(-1, 1) rotate(-180.000000) translate(-40.783277, -17.615695) "></path>
                    <path d="M61.6053783,61.3239589 L57.5432197,64.5447567 C57.3562645,64.6929893 57.3219037,64.9685546 57.4664737,65.1602473 C57.6110428,65.3519409 57.8797977,65.3871716 58.0667529,65.238939 L62.1289106,62.0181412 C62.3158667,61.8699086 62.3502276,61.5943433 62.2056575,61.4026506 C62.0610875,61.210957 61.7923335,61.1757254 61.6053783,61.3239589 Z M54.2283286,67.8813355 L50.166171,71.1021335 C49.9792149,71.250367 49.9448549,71.5259314 50.0894241,71.717625 C50.2339941,71.9093177 50.5027481,71.9445493 50.6897042,71.7963158 L54.7518618,68.5755187 C54.9388179,68.4272852 54.9731779,68.1517208 54.8286087,67.9600272 C54.6840387,67.7683345 54.4152847,67.7331029 54.2283286,67.8813355 Z M46.0316077,73.6190409 L41.96945,76.8398387 C41.782494,76.9880713 41.7481331,77.2636366 41.8927031,77.4553293 C42.0372723,77.6470228 42.3060272,77.6822536 42.4929824,77.534021 L46.555141,74.3132232 C46.7420961,74.1649906 46.776457,73.8894253 46.631887,73.6977326 C46.4873178,73.506039 46.2185629,73.4708074 46.0316077,73.6190409 Z M38.6545581,79.3567454 L34.5924002,82.5775433 C34.405445,82.7257768 34.3710842,83.0013412 34.5156533,83.1930348 C34.6602233,83.3847275 34.9289774,83.4199591 35.1159334,83.2717256 L39.1780913,80.0509286 C39.3650474,79.9026951 39.3994074,79.6271307 39.2548382,79.4354371 C39.1102682,79.2437443 38.8415141,79.2085127 38.6545581,79.3567454 Z M30.4578372,85.9141229 L26.3956795,89.1349206 C26.2087235,89.2831532 26.1743626,89.5587185 26.3189326,89.7504112 C26.4635026,89.9421048 26.7322567,89.9773355 26.9192127,89.8291029 L30.9813705,86.6083051 C31.1683256,86.4600717 31.2026865,86.1845073 31.0581165,85.9928145 C30.9135473,85.801121 30.6447924,85.7658894 30.4578372,85.9141229 Z M23.0807881,91.6518273 L19.0186295,94.8726253 C18.8316744,95.0208588 18.7973135,95.2964232 18.9418835,95.4881168 C19.0864527,95.6798095 19.3552076,95.7150411 19.5421628,95.5668076 L23.6043205,92.3460105 C23.7912765,92.197777 23.8256374,91.9222126 23.6810674,91.730519 C23.5364974,91.5388263 23.2677433,91.5035947 23.0807881,91.6518273 Z" id="Path-30" transform="translate(40.660169, 78.431866) scale(-1, 1) rotate(-180.000000) translate(-40.660169, -78.431866) "></path>
                    <path d="M75,48.3606557 L70.0819672,48.3606557 C69.8556213,48.3606557 69.6721311,48.5441459 69.6721311,48.7704918 C69.6721311,48.9968377 69.8556213,49.1803279 70.0819672,49.1803279 L75,49.1803279 C75.2263459,49.1803279 75.4098361,48.9968377 75.4098361,48.7704918 C75.4098361,48.5441459 75.2263459,48.3606557 75,48.3606557 Z M65.1639344,48.3606557 L60.2459016,48.3606557 C60.0195557,48.3606557 59.8360656,48.5441459 59.8360656,48.7704918 C59.8360656,48.9968377 60.0195557,49.1803279 60.2459016,49.1803279 L65.1639344,49.1803279 C65.3902803,49.1803279 65.5737705,48.9968377 65.5737705,48.7704918 C65.5737705,48.5441459 65.3902803,48.3606557 65.1639344,48.3606557 Z M55.3278689,48.3606557 L50.4098361,48.3606557 C50.1834902,48.3606557 50,48.5441459 50,48.7704918 C50,48.9968377 50.1834902,49.1803279 50.4098361,49.1803279 L55.3278689,49.1803279 C55.5542148,49.1803279 55.7377049,48.9968377 55.7377049,48.7704918 C55.7377049,48.5441459 55.5542148,48.3606557 55.3278689,48.3606557 Z M45.4918033,48.3606557 L40.5737705,48.3606557 C40.3474246,48.3606557 40.1639344,48.5441459 40.1639344,48.7704918 C40.1639344,48.9968377 40.3474246,49.1803279 40.5737705,49.1803279 L45.4918033,49.1803279 C45.7181492,49.1803279 45.9016393,48.9968377 45.9016393,48.7704918 C45.9016393,48.5441459 45.7181492,48.3606557 45.4918033,48.3606557 Z M35.6557377,48.3606557 L30.7377049,48.3606557 C30.511359,48.3606557 30.3278689,48.5441459 30.3278689,48.7704918 C30.3278689,48.9968377 30.511359,49.1803279 30.7377049,49.1803279 L35.6557377,49.1803279 C35.8820836,49.1803279 36.0655738,48.9968377 36.0655738,48.7704918 C36.0655738,48.5441459 35.8820836,48.3606557 35.6557377,48.3606557 Z M25.7961854,48.3606557 L20.9251261,48.3606557 C20.6858088,48.3606557 20.4918033,48.5441459 20.4918033,48.7704918 C20.4918033,48.9968377 20.6858088,49.1803279 20.9251261,49.1803279 L25.7961854,49.1803279 C26.0355026,49.1803279 26.2295082,48.9968377 26.2295082,48.7704918 C26.2295082,48.5441459 26.0355026,48.3606557 25.7961854,48.3606557 Z" id="Path-30"></path>
                    <polygon id="Triangle-2" transform="translate(7.649255, 46.473553) scale(-1, 1) rotate(88.000000) translate(-7.649255, -46.473553) " points="7.73122256 39.260438 20.4361406 54.0145363 -4.97369547 54.0145363"></polygon>
                </g>
                <g id="shop" transform="translate(163.000000, 210.000000)">
                    <path d="M30,12.4648712 L30,28 L2,28 L2,12.4648712 C2.58834673,12.8052114 3.27142571,13 4,13 C6.209139,13 8,11.209139 8,9 C8,11.209139 9.790861,13 12,13 C14.209139,13 16,11.209139 16,9 C16,11.209139 17.790861,13 20,13 C22.209139,13 24,11.209139 24,9 C24,11.209139 25.790861,13 28,13 C28.7285743,13 29.4116533,12.8052114 30,12.4648712 Z" id="Combined-Shape" fill="#002936"></path>
                    <g id="Group-22" transform="translate(6.000000, 17.000000)" fill="#FFFFFF">
                        <rect id="Rectangle-37" x="0" y="0" width="6" height="8" rx="0.819672131"></rect>
                        <rect id="Rectangle-38" x="9" y="0" width="11" height="8" rx="0.819672131"></rect>
                    </g>
                    <path d="M24,-1.0658141e-14 L32,-1.0658141e-14 L32,8 C32,10.209139 30.209139,12 28,12 C25.790861,12 24,10.209139 24,8 C24,10.209139 22.209139,12 20,12 C17.790861,12 16,10.209139 16,8 C16,10.209139 14.209139,12 12,12 C9.790861,12 8,10.209139 8,8 C8,10.209139 6.209139,12 4,12 C1.790861,12 -2.705415e-16,10.209139 0,8 L0,0 L8,0 L16,0 L24,-1.0658141e-14 Z" id="Combined-Shape" fill="#002936"></path>
                </g>
                <g id="Group-30" transform="translate(296.721311, 117.229508)">
                    <g id="Group-23">
                        <g id="seller">
                            <rect id="Rectangle-7" fill="#002936" x="0" y="0" width="48.3606557" height="49.1803279" rx="24.1803279"></rect>
                            <path d="M28.6885246,17.6229508 C28.6885246,20.5657104 26.4868852,22.9508197 23.7704918,22.9508197 C21.0540984,22.9508197 18.852459,20.5657104 18.852459,17.6229508 C18.852459,14.6801913 21.0540984,12.295082 23.7704918,12.295082 C26.4868852,12.295082 28.6885246,14.6801913 28.6885246,17.6229508 Z" id="Stroke-103" fill="#FFFFFF"></path>
                            <path d="M33.6065574,36.8852459 L13.1147541,36.8852459 C13.1147541,32.3590164 16.9364754,28.6885246 21.6530055,28.6885246 L25.068306,28.6885246 C29.7848361,28.6885246 33.6065574,32.3590164 33.6065574,36.8852459 Z" id="Stroke-104" fill="#FFFFFF"></path>
                        </g>
                    </g>
                    <g id="seller" transform="translate(0.000000, 167.213115)">
                        <rect id="Rectangle-7" fill="#002936" x="0" y="0" width="48.3606557" height="49.1803279" rx="24.1803279"></rect>
                        <path d="M28.6885246,17.6229508 C28.6885246,20.5657104 26.4868852,22.9508197 23.7704918,22.9508197 C21.0540984,22.9508197 18.852459,20.5657104 18.852459,17.6229508 C18.852459,14.6801913 21.0540984,12.295082 23.7704918,12.295082 C26.4868852,12.295082 28.6885246,14.6801913 28.6885246,17.6229508 Z" id="Stroke-103" fill="#FFFFFF"></path>
                        <path d="M33.6065574,36.8852459 L13.1147541,36.8852459 C13.1147541,32.3590164 16.9364754,28.6885246 21.6530055,28.6885246 L25.068306,28.6885246 C29.7848361,28.6885246 33.6065574,32.3590164 33.6065574,36.8852459 Z" id="Stroke-104" fill="#FFFFFF"></path>
                    </g>
                    <g id="seller" transform="translate(0.000000, 83.606557)">
                        <rect id="Rectangle-7" fill="#002936" x="0" y="0" width="48.3606557" height="49.1803279" rx="24.1803279"></rect>
                        <path d="M28.6885246,17.6229508 C28.6885246,20.5657104 26.4868852,22.9508197 23.7704918,22.9508197 C21.0540984,22.9508197 18.852459,20.5657104 18.852459,17.6229508 C18.852459,14.6801913 21.0540984,12.295082 23.7704918,12.295082 C26.4868852,12.295082 28.6885246,14.6801913 28.6885246,17.6229508 Z" id="Stroke-103" fill="#FFFFFF"></path>
                        <path d="M33.6065574,36.8852459 L13.1147541,36.8852459 C13.1147541,32.3590164 16.9364754,28.6885246 21.6530055,28.6885246 L25.068306,28.6885246 C29.7848361,28.6885246 33.6065574,32.3590164 33.6065574,36.8852459 Z" id="Stroke-104" fill="#FFFFFF"></path>
                    </g>
                </g>
                <path d="M17.4054304,95.1031634 L19.7195633,95.1031634 C20.8065949,95.1031634 21.5929066,95.2656554 22.0785221,95.5906442 C22.5641375,95.915633 22.8069416,96.4292571 22.8069416,97.1315318 C22.8069416,97.6171472 22.6715317,98.017774 22.4007076,98.3334241 C22.1298836,98.6490741 21.73486,98.8535899 21.215625,98.9469775 L21.215625,99.0030097 C22.4595477,99.2159334 23.0814998,99.8696368 23.0814998,100.964139 C23.0814998,101.696298 22.8340264,102.267822 22.3390721,102.678727 C21.8441179,103.089632 21.1521262,103.295082 20.2630764,103.295082 L17.4054304,103.295082 L17.4054304,95.1031634 Z M18.357979,98.6107838 L19.9268827,98.6107838 C20.5992734,98.6107838 21.0830138,98.5052574 21.3781186,98.2942015 C21.6732234,98.0831455 21.8207736,97.7273441 21.8207736,97.2267866 C21.8207736,96.7673197 21.6564139,96.4357987 21.3276896,96.2322138 C20.9989653,96.0286288 20.4760026,95.9268379 19.7587859,95.9268379 L18.357979,95.9268379 L18.357979,98.6107838 Z M18.357979,99.4176486 L18.357979,102.482614 L20.0669634,102.482614 C20.7281476,102.482614 21.2258959,102.354675 21.5602235,102.098793 C21.8945511,101.842911 22.0617124,101.442284 22.0617124,100.896901 C22.0617124,100.388872 21.8908157,100.015327 21.5490171,99.7762551 C21.2072185,99.5371829 20.6870574,99.4176486 19.9885182,99.4176486 L18.357979,99.4176486 Z M25.2077229,97.1539447 L25.2077229,101.137839 C25.2077229,101.638397 25.321654,102.011942 25.5495197,102.258485 C25.7773855,102.505028 26.1341207,102.628298 26.6197362,102.628298 C27.2622428,102.628298 27.7319754,102.452732 28.0289479,102.101595 C28.3259204,101.750457 28.4744045,101.177066 28.4744045,100.381404 L28.4744045,97.1539447 L29.4045402,97.1539447 L29.4045402,103.295082 L28.6368981,103.295082 L28.5024206,102.471408 L28.4519916,102.471408 C28.2614809,102.773983 27.997198,103.005581 27.6591349,103.166208 C27.3210718,103.326834 26.9353868,103.407147 26.5020684,103.407147 C25.7549677,103.407147 25.1955844,103.229713 24.8239018,102.87484 C24.4522192,102.519967 24.2663807,101.952179 24.2663807,101.171459 L24.2663807,97.1539447 L25.2077229,97.1539447 Z M30.0347016,97.1539447 L31.0320761,97.1539447 L32.3768507,100.655962 C32.6719555,101.45536 32.8549924,102.032486 32.925967,102.387359 L32.9707928,102.387359 C33.0193543,102.196848 33.1211453,101.870931 33.2761687,101.409596 C33.4311921,100.948261 33.9382791,99.529725 34.7974449,97.1539447 L35.7948194,97.1539447 L33.1556993,104.146773 C32.894214,104.837841 32.5888412,105.328118 32.2395716,105.61762 C31.890302,105.907121 31.4616594,106.05187 30.9536309,106.05187 C30.6697326,106.05187 30.3895741,106.020119 30.1131468,105.956615 L30.1131468,105.211386 C30.3185995,105.256212 30.5483295,105.278624 30.8023438,105.278624 C31.4411149,105.278624 31.8968395,104.920022 32.1695313,104.202805 L32.5113281,103.328701 L30.0347016,97.1539447 Z M39.0192751,103.407147 C38.1115477,103.407147 37.3952756,103.130723 36.8704374,102.577869 C36.3455991,102.025014 36.0831839,101.25738 36.0831839,100.274942 C36.0831839,99.2850339 36.3269219,98.4987222 36.8144051,97.9159836 C37.3018883,97.333245 37.9565255,97.0418801 38.7783363,97.0418801 C39.5478501,97.0418801 40.156728,97.2949567 40.6049885,97.8011174 C41.0532489,98.3072782 41.2773758,98.9749894 41.2773758,99.8042713 L41.2773758,100.39261 L37.046939,100.39261 C37.0656166,101.113562 37.2477196,101.660805 37.5932537,102.034356 C37.9387878,102.407906 38.4253299,102.594679 39.0528945,102.594679 C39.7140786,102.594679 40.3677819,102.456467 41.0140241,102.18004 L41.0140241,103.009317 C40.6852998,103.151267 40.3743237,103.253057 40.0810867,103.314693 C39.7878497,103.376329 39.433916,103.407147 39.0192751,103.407147 Z M38.7671299,97.8207287 C38.2740434,97.8207287 37.8808875,97.981353 37.5876505,98.3026063 C37.2944135,98.6238596 37.121649,99.0683779 37.0693519,99.6361744 L40.2800013,99.6361744 C40.2800013,99.0497004 40.1492606,98.6005128 39.8877754,98.2885982 C39.6262901,97.9766837 39.2527453,97.8207287 38.7671299,97.8207287 Z M45.2974897,97.0418801 C45.5701815,97.0418801 45.8148533,97.0642928 46.0315125,97.1091189 L45.9026383,97.9720159 C45.6486241,97.9159833 45.4244972,97.8879675 45.230251,97.8879675 C44.733429,97.8879675 44.3085219,98.0896816 43.9555168,98.493116 C43.6025117,98.8965504 43.4260118,99.3989681 43.4260118,100.000384 L43.4260118,103.295082 L42.495876,103.295082 L42.495876,97.1539447 L43.2635182,97.1539447 L43.3699795,98.2913998 L43.4148053,98.2913998 C43.642671,97.891701 43.9172264,97.5835265 44.2384798,97.3668673 C44.5597331,97.1502081 44.9127329,97.0418801 45.2974897,97.0418801 Z M50.7744429,101.619717 C50.7744429,102.191249 50.5615223,102.632032 50.1356749,102.942079 C49.7098275,103.252125 49.1121559,103.407147 48.3426421,103.407147 C47.5283023,103.407147 46.8932762,103.278274 46.4375448,103.020524 L46.4375448,102.157627 C46.7326496,102.307047 47.0492288,102.424714 47.3872919,102.51063 C47.7253549,102.596547 48.0512727,102.639504 48.365055,102.639504 C48.8506705,102.639504 49.2242153,102.561994 49.4857005,102.40697 C49.7471858,102.251947 49.8779265,102.01568 49.8779265,101.698162 C49.8779265,101.45909 49.7742678,101.254574 49.5669473,101.084609 C49.3596269,100.914643 48.9552647,100.713863 48.3538486,100.482262 C47.7823165,100.269338 47.3760866,100.0835 47.1351466,99.9247407 C46.8942066,99.7659817 46.7149052,99.5857464 46.5972368,99.3840292 C46.4795684,99.182312 46.4207351,98.9413756 46.4207351,98.6612129 C46.4207351,98.1606554 46.624317,97.7656318 47.0314869,97.4761303 C47.4386568,97.1866287 47.9971062,97.0418801 48.7068519,97.0418801 C49.3680361,97.0418801 50.0142685,97.1763562 50.6455686,97.4453125 L50.3149782,98.2017482 C49.6986201,97.947734 49.1401707,97.8207287 48.6396132,97.8207287 C48.1988238,97.8207287 47.8663689,97.8898345 47.6422387,98.0280482 C47.4181085,98.1662618 47.3060451,98.3567696 47.3060451,98.5995774 C47.3060451,98.7639395 47.3480688,98.9040188 47.4321177,99.0198194 C47.5161665,99.13562 47.6515765,99.2458157 47.8383517,99.3504098 C48.0251269,99.4550039 48.3837298,99.6062896 48.9141713,99.8042713 C49.6425946,100.069492 50.1347398,100.336577 50.3906218,100.605533 C50.6465038,100.874489 50.7744429,101.212547 50.7744429,101.619717 Z" id="Buyers" fill="#002936"></path>
                <text id="Sellers" font-family="OpenSans-Regular, Open Sans" font-size="11.4754098" font-weight="normal" letter-spacing="-0.367213126" fill="#002936">
                    <tspan x="300.109769" y="103">Sellers</tspan>
                </text>
                <path d="M173.021363,251.738601 L174.730347,248.365459 L176.601825,248.365459 L173.88426,253.369141 L173.88426,256.557377 L172.158466,256.557377 L172.158466,253.425173 L169.4409,248.365459 L171.323585,248.365459 L173.021363,251.738601 Z M177.921183,253.413966 C177.921183,254.03406 178.022974,254.502859 178.226559,254.820377 C178.430144,255.137894 178.761665,255.296651 179.221132,255.296651 C179.676864,255.296651 180.004649,255.138828 180.204499,254.823178 C180.404348,254.507528 180.504271,254.037796 180.504271,253.413966 C180.504271,252.793873 180.403414,252.32881 180.201697,252.018763 C179.99998,251.708716 179.669393,251.553695 179.209926,251.553695 C178.754194,251.553695 178.425475,251.707782 178.223758,252.015961 C178.02204,252.32414 177.921183,252.790137 177.921183,253.413966 Z M182.252478,253.413966 C182.252478,254.433759 181.983526,255.231277 181.445613,255.806545 C180.907701,256.381812 180.158744,256.669442 179.198719,256.669442 C178.597303,256.669442 178.06687,256.537767 177.607403,256.274414 C177.147936,256.011061 176.794936,255.632847 176.548393,255.139761 C176.301849,254.646674 176.17858,254.071415 176.17858,253.413966 C176.17858,252.390438 176.445664,251.594788 176.979841,251.026992 C177.514018,250.459195 178.264843,250.175301 179.232339,250.175301 C179.833755,250.175301 180.364188,250.306042 180.823655,250.567527 C181.283122,250.829012 181.636122,251.204425 181.882665,251.693776 C182.129208,252.183127 182.252478,252.756518 182.252478,253.413966 Z M187.735035,256.557377 L187.505302,255.756116 L187.415651,255.756116 C187.232611,256.047485 186.972997,256.272546 186.636802,256.431304 C186.300607,256.590063 185.917723,256.669442 185.48814,256.669442 C184.752246,256.669442 184.197532,256.472397 183.823982,256.078301 C183.450431,255.684205 183.263659,255.117351 183.263659,254.377722 L183.263659,250.292969 L184.972643,250.292969 L184.972643,253.951876 C184.972643,254.403872 185.052956,254.742864 185.213582,254.968862 C185.374209,255.19486 185.630087,255.307857 185.981224,255.307857 C186.459369,255.307857 186.804898,255.148167 187.017821,254.828781 C187.230745,254.509396 187.337205,253.979896 187.337205,253.240266 L187.337205,250.292969 L189.04619,250.292969 L189.04619,256.557377 L187.735035,256.557377 Z" id="You" fill="#002936"></path>
                <path d="M406.041483,96.7261142 L408.355616,96.7261142 C409.442648,96.7261142 410.228959,96.8886062 410.714575,97.213595 C411.20019,97.5385838 411.442994,98.0522079 411.442994,98.7544826 C411.442994,99.2400981 411.307584,99.6407248 411.03676,99.9563749 C410.765936,100.272025 410.370913,100.476541 409.851678,100.569928 L409.851678,100.625961 C411.095601,100.838884 411.717553,101.492588 411.717553,102.58709 C411.717553,103.319249 411.470079,103.890772 410.975125,104.301678 C410.480171,104.712583 409.788179,104.918033 408.899129,104.918033 L406.041483,104.918033 L406.041483,96.7261142 Z M406.994032,100.233735 L408.562935,100.233735 C409.235326,100.233735 409.719067,100.128208 410.014171,99.9171523 C410.309276,99.7060963 410.456826,99.3502949 410.456826,98.8497374 C410.456826,98.3902705 410.292467,98.0587495 409.963742,97.8551646 C409.635018,97.6515796 409.112055,97.5497887 408.394839,97.5497887 L406.994032,97.5497887 L406.994032,100.233735 Z M406.994032,101.040599 L406.994032,104.105565 L408.703016,104.105565 C409.3642,104.105565 409.861949,103.977626 410.196276,103.721744 C410.530604,103.465862 410.697765,103.065235 410.697765,102.519851 C410.697765,102.011823 410.526868,101.638278 410.18507,101.399206 C409.843271,101.160134 409.32311,101.040599 408.624571,101.040599 L406.994032,101.040599 Z M416.746247,104.918033 L416.561341,104.043929 L416.516515,104.043929 C416.210204,104.428686 415.904831,104.689234 415.600387,104.82558 C415.295944,104.961925 414.915862,105.030097 414.460131,105.030097 C413.851244,105.030097 413.37404,104.873209 413.028506,104.559426 C412.682972,104.245644 412.510207,103.799258 412.510207,103.220255 C412.510207,101.980068 413.501969,101.3301 415.485521,101.270332 L416.527722,101.236712 L416.527722,100.855693 C416.527722,100.373813 416.424063,100.018012 416.216742,99.788278 C416.009422,99.5585446 415.677901,99.4436796 415.22217,99.4436796 C414.710406,99.4436796 414.131411,99.6005684 413.485169,99.9143507 L413.199404,99.2027408 C413.50198,99.0383786 413.833501,98.9095057 414.193977,98.8161181 C414.554453,98.7227305 414.915858,98.6760374 415.278202,98.6760374 C416.010361,98.6760374 416.552934,98.8385294 416.905939,99.1635182 C417.258945,99.488507 417.435444,100.009602 417.435444,100.726819 L417.435444,104.918033 L416.746247,104.918033 Z M414.645037,104.262455 C415.22404,104.262455 415.678831,104.103699 416.009423,103.786181 C416.340015,103.468663 416.505309,103.024145 416.505309,102.452613 L416.505309,101.897893 L415.575173,101.937116 C414.835543,101.963264 414.302308,102.078129 413.975451,102.281714 C413.648595,102.485299 413.485169,102.801878 413.485169,103.231461 C413.485169,103.567657 413.58696,103.823535 413.790545,103.999103 C413.99413,104.174672 414.278958,104.262455 414.645037,104.262455 Z M423.186956,104.918033 L423.186956,100.945345 C423.186956,100.444787 423.073025,100.071242 422.845159,99.824699 C422.617293,99.5781558 422.260558,99.454886 421.774942,99.454886 C421.132436,99.454886 420.661769,99.6285843 420.362929,99.9759862 C420.064089,100.323388 419.914671,100.896779 419.914671,101.696177 L419.914671,104.918033 L418.984535,104.918033 L418.984535,98.7768955 L419.740971,98.7768955 L419.892258,99.6173796 L419.937084,99.6173796 C420.127594,99.3148038 420.394679,99.0804045 420.738345,98.9141746 C421.082012,98.7479447 421.464895,98.6648309 421.887007,98.6648309 C422.626637,98.6648309 423.183218,98.8431986 423.556769,99.1999392 C423.930319,99.5566798 424.117091,100.127269 424.117091,100.911725 L424.117091,104.918033 L423.186956,104.918033 Z M426.579508,101.774622 C426.740135,101.546756 426.984807,101.247921 427.313531,100.878106 L429.297074,98.7768955 L430.400909,98.7768955 L427.913076,101.393603 L430.574609,104.918033 L429.448361,104.918033 L427.279912,102.015561 L426.579508,102.62071 L426.579508,104.918033 L425.660579,104.918033 L425.660579,96.1994109 L426.579508,96.1994109 L426.579508,100.822074 C426.579508,101.027526 426.564566,101.345039 426.534682,101.774622 L426.579508,101.774622 Z M401.001783,120.491803 L399.981996,117.886303 L396.698505,117.886303 L395.689924,120.491803 L394.726169,120.491803 L397.964834,112.266265 L398.766096,112.266265 L401.987952,120.491803 L401.001783,120.491803 Z M399.685025,117.029009 L398.732476,114.490747 C398.609205,114.169493 398.4822,113.775404 398.351457,113.308466 C398.269276,113.667074 398.151609,114.061164 397.998454,114.490747 L397.034698,117.029009 L399.685025,117.029009 Z M405.06112,120.603868 C404.17207,120.603868 403.483814,120.330246 402.996331,119.782995 C402.508847,119.235744 402.26511,118.461572 402.26511,117.460457 C402.26511,116.433194 402.512583,115.639411 403.007537,115.079086 C403.502491,114.51876 404.207557,114.238601 405.122756,114.238601 C405.41786,114.238601 405.712961,114.270353 406.008065,114.333856 C406.30317,114.39736 406.534768,114.472069 406.702866,114.557985 L406.417101,115.34804 C406.211648,115.265859 405.987522,115.197687 405.744714,115.143523 C405.501906,115.089358 405.287118,115.062276 405.100343,115.062276 C403.852684,115.062276 403.228865,115.857926 403.228865,117.449251 C403.228865,118.203823 403.381084,118.782817 403.685528,119.186251 C403.989971,119.589686 404.441027,119.7914 405.038707,119.7914 C405.550471,119.7914 406.075302,119.681204 406.613214,119.460809 L406.613214,120.284484 C406.202309,120.497408 405.684949,120.603868 405.06112,120.603868 Z M410.157054,120.603868 C409.268004,120.603868 408.579748,120.330246 408.092264,119.782995 C407.604781,119.235744 407.361043,118.461572 407.361043,117.460457 C407.361043,116.433194 407.608517,115.639411 408.103471,115.079086 C408.598425,114.51876 409.303491,114.238601 410.218689,114.238601 C410.513794,114.238601 410.808894,114.270353 411.103999,114.333856 C411.399104,114.39736 411.630702,114.472069 411.798799,114.557985 L411.513035,115.34804 C411.307582,115.265859 411.083455,115.197687 410.840647,115.143523 C410.59784,115.089358 410.383051,115.062276 410.196276,115.062276 C408.948618,115.062276 408.324798,115.857926 408.324798,117.449251 C408.324798,118.203823 408.477018,118.782817 408.781461,119.186251 C409.085905,119.589686 409.53696,119.7914 410.134641,119.7914 C410.646405,119.7914 411.171235,119.681204 411.709148,119.460809 L411.709148,120.284484 C411.298242,120.497408 410.780883,120.603868 410.157054,120.603868 Z M418.099427,117.415631 C418.099427,118.416746 417.847284,119.198389 417.342991,119.760582 C416.838698,120.322775 416.142037,120.603868 415.252987,120.603868 C414.703868,120.603868 414.216392,120.474995 413.790545,120.217245 C413.364698,119.959495 413.035978,119.589686 412.804377,119.107806 C412.572776,118.625926 412.456977,118.061874 412.456977,117.415631 C412.456977,116.414516 412.707252,115.634742 413.207809,115.076284 C413.708367,114.517826 414.40316,114.238601 415.29221,114.238601 C416.151376,114.238601 416.834029,114.524363 417.34019,115.095895 C417.84635,115.667427 418.099427,116.440665 418.099427,117.415631 Z M413.420732,117.415631 C413.420732,118.200087 413.577621,118.797759 413.891403,119.208664 C414.205185,119.61957 414.666513,119.825019 415.2754,119.825019 C415.884287,119.825019 416.346549,119.620503 416.662199,119.211466 C416.977849,118.802428 417.135672,118.203823 417.135672,117.415631 C417.135672,116.634911 416.977849,116.041909 416.662199,115.636607 C416.346549,115.231305 415.880552,115.028657 415.264194,115.028657 C414.655307,115.028657 414.195847,115.228503 413.8858,115.628202 C413.575753,116.027901 413.420732,116.623705 413.420732,117.415631 Z M420.236856,114.350666 L420.236856,118.334561 C420.236856,118.835118 420.350788,119.208663 420.578653,119.455206 C420.806519,119.701749 421.163254,119.825019 421.64887,119.825019 C422.291376,119.825019 422.761109,119.649453 423.058081,119.298316 C423.355054,118.947178 423.503538,118.373787 423.503538,117.578125 L423.503538,114.350666 L424.433674,114.350666 L424.433674,120.491803 L423.666032,120.491803 L423.531554,119.668129 L423.481125,119.668129 C423.290614,119.970705 423.026332,120.202302 422.688268,120.362929 C422.350205,120.523556 421.96452,120.603868 421.531202,120.603868 C420.784101,120.603868 420.224718,120.426434 419.853035,120.071561 C419.481353,119.716688 419.295514,119.1489 419.295514,118.36818 L419.295514,114.350666 L420.236856,114.350666 Z M430.241217,120.491803 L430.241217,116.519115 C430.241217,116.018558 430.127286,115.645013 429.89942,115.39847 C429.671555,115.151926 429.314819,115.028657 428.829204,115.028657 C428.186697,115.028657 427.716031,115.202355 427.417191,115.549757 C427.11835,115.897158 426.968932,116.47055 426.968932,117.269947 L426.968932,120.491803 L426.038797,120.491803 L426.038797,114.350666 L426.795232,114.350666 L426.94652,115.19115 L426.991345,115.19115 C427.181856,114.888574 427.448941,114.654175 427.792607,114.487945 C428.136273,114.321715 428.519157,114.238601 428.941269,114.238601 C429.680898,114.238601 430.23748,114.416969 430.61103,114.77371 C430.984581,115.13045 431.171353,115.70104 431.171353,116.485496 L431.171353,120.491803 L430.241217,120.491803 Z M434.698383,119.836226 C434.862745,119.836226 435.021502,119.824085 435.174657,119.799805 C435.327813,119.775524 435.449215,119.75031 435.538867,119.724161 L435.538867,120.435771 C435.438009,120.484333 435.289525,120.524489 435.093411,120.55624 C434.897297,120.587992 434.720797,120.603868 434.563906,120.603868 C433.376015,120.603868 432.782079,119.97818 432.782079,118.726787 L432.782079,115.073482 L431.902373,115.073482 L431.902373,114.625224 L432.782079,114.238601 L433.174305,112.927446 L433.712215,112.927446 L433.712215,114.350666 L435.494041,114.350666 L435.494041,115.073482 L433.712215,115.073482 L433.712215,118.687564 C433.712215,119.057379 433.799998,119.341273 433.975567,119.539255 C434.151135,119.737236 434.392072,119.836226 434.698383,119.836226 Z M440.360243,118.816438 C440.360243,119.38797 440.147322,119.828753 439.721475,120.1388 C439.295627,120.448847 438.697956,120.603868 437.928442,120.603868 C437.114102,120.603868 436.479076,120.474995 436.023345,120.217245 L436.023345,119.354348 C436.318449,119.503768 436.635029,119.621435 436.973092,119.707351 C437.311155,119.793268 437.637073,119.836226 437.950855,119.836226 C438.43647,119.836226 438.810015,119.758715 439.0715,119.603692 C439.332986,119.448668 439.463726,119.212401 439.463726,118.894883 C439.463726,118.655811 439.360068,118.451295 439.152747,118.28133 C438.945427,118.111365 438.541064,117.910584 437.939648,117.678983 C437.368116,117.466059 436.961886,117.280221 436.720946,117.121462 C436.480006,116.962703 436.300705,116.782468 436.183037,116.580751 C436.065368,116.379033 436.006535,116.138097 436.006535,115.857934 C436.006535,115.357377 436.210117,114.962353 436.617287,114.672852 C437.024457,114.38335 437.582906,114.238601 438.292652,114.238601 C438.953836,114.238601 439.600068,114.373078 440.231368,114.642034 L439.900778,115.39847 C439.28442,115.144455 438.72597,115.01745 438.225413,115.01745 C437.784624,115.01745 437.452169,115.086556 437.228039,115.224769 C437.003908,115.362983 436.891845,115.553491 436.891845,115.796299 C436.891845,115.960661 436.933869,116.10074 437.017917,116.216541 C437.101966,116.332341 437.237376,116.442537 437.424151,116.547131 C437.610927,116.651725 437.96953,116.803011 438.499971,117.000993 C439.228394,117.266213 439.72054,117.533298 439.976422,117.802254 C440.232304,118.07121 440.360243,118.409268 440.360243,118.816438 Z" id="Bank-Accounts" fill="#002936"></path>
                <path d="M13.0467149,66.395844 L15.2319736,62.2998847 L16.2629675,62.2998847 L13.5285925,67.3147733 L13.5285925,70.4918033 L12.5648373,70.4918033 L12.5648373,67.3595991 L9.83606557,62.2998847 L10.8782659,62.2998847 L13.0467149,66.395844 Z M21.6110464,67.4156314 C21.6110464,68.4167464 21.3589036,69.1983888 20.8546106,69.7605821 C20.3503177,70.3227754 19.6536567,70.6038678 18.7646068,70.6038678 C18.2154878,70.6038678 17.7280119,70.4749949 17.3021644,70.2172451 C16.876317,69.9594954 16.5475976,69.5896861 16.3159964,69.1078061 C16.0843952,68.6259261 15.9685963,68.0618735 15.9685963,67.4156314 C15.9685963,66.4145164 16.2188713,65.6347417 16.7194288,65.0762839 C17.2199863,64.5178261 17.9147795,64.2386014 18.8038294,64.2386014 C19.6629952,64.2386014 20.3456483,64.5243632 20.851809,65.0958952 C21.3579698,65.6674273 21.6110464,66.440665 21.6110464,67.4156314 Z M16.9323514,67.4156314 C16.9323514,68.2000872 17.0892402,68.7977588 17.4030225,69.2086642 C17.7168048,69.6195696 18.1781326,69.8250192 18.7870197,69.8250192 C19.3959068,69.8250192 19.8581684,69.6205035 20.1738185,69.2114658 C20.4894686,68.8024282 20.6472912,68.2038227 20.6472912,67.4156314 C20.6472912,66.6349111 20.4894686,66.0419088 20.1738185,65.6366067 C19.8581684,65.2313045 19.3921714,65.0286565 18.7758133,65.0286565 C18.1669262,65.0286565 17.7074661,65.228503 17.3974193,65.6282018 C17.0873725,66.0279007 16.9323514,66.6237046 16.9323514,67.4156314 Z M23.7484759,64.350666 L23.7484759,68.3345607 C23.7484759,68.8351182 23.8624071,69.208663 24.0902728,69.4552062 C24.3181385,69.7017494 24.6748737,69.8250192 25.1604892,69.8250192 C25.8029958,69.8250192 26.2727284,69.6494532 26.5697009,69.2983158 C26.8666735,68.9471785 27.0151575,68.3737873 27.0151575,67.578125 L27.0151575,64.350666 L27.9452933,64.350666 L27.9452933,70.4918033 L27.1776511,70.4918033 L27.0431736,69.6681288 L26.9927446,69.6681288 C26.8022339,69.9707046 26.537951,70.2023024 26.1998879,70.362929 C25.8618248,70.5235557 25.4761399,70.6038678 25.0428214,70.6038678 C24.2957207,70.6038678 23.7363374,70.4264341 23.3646548,70.0715612 C22.9929722,69.7166884 22.8071337,69.1489003 22.8071337,68.3681801 L22.8071337,64.350666 L23.7484759,64.350666 Z M32.3520299,64.2386014 C32.6247217,64.2386014 32.8693935,64.2610141 33.0860527,64.3058402 L32.9571785,65.1687372 C32.7031643,65.1127046 32.4790374,65.0846888 32.2847912,65.0846888 C31.7879692,65.0846888 31.3630621,65.286403 31.010057,65.6898373 C30.6570519,66.0932717 30.480552,66.5956894 30.480552,67.1971055 L30.480552,70.4918033 L29.5504162,70.4918033 L29.5504162,64.350666 L30.3180584,64.350666 L30.4245197,65.4881212 L30.4693455,65.4881212 C30.6972112,65.0884223 30.9717666,64.7802478 31.2930199,64.5635886 C31.6142733,64.3469294 31.9672731,64.2386014 32.3520299,64.2386014 Z M41.8154777,64.6868596 C41.8154777,65.5161414 41.5325175,66.1539691 40.9665887,66.6003618 C40.4006599,67.0467545 39.5910016,67.2699475 38.5375896,67.2699475 L37.5738345,67.2699475 L37.5738345,70.4918033 L36.6212858,70.4918033 L36.6212858,62.2998847 L38.744909,62.2998847 C40.791965,62.2998847 41.8154777,63.0955351 41.8154777,64.6868596 Z M37.5738345,66.4518763 L38.4311283,66.4518763 C39.2753521,66.4518763 39.8860978,66.3155324 40.2633837,66.0428407 C40.6406695,65.7701489 40.8293096,65.3331015 40.8293096,64.7316855 C40.8293096,64.1900374 40.6518759,63.7866091 40.297003,63.5213883 C39.9421302,63.2561676 39.3892839,63.1235592 38.6384477,63.1235592 L37.5738345,63.1235592 L37.5738345,66.4518763 Z M47.7855148,68.3121478 C47.7855148,69.0331 47.5240335,69.5952849 47.0010629,69.9987193 C46.4780924,70.4021537 45.7683574,70.6038678 44.8718365,70.6038678 C43.9006056,70.6038678 43.153516,70.4787303 42.6305455,70.2284516 L42.6305455,69.3095223 C42.9667409,69.4514714 43.3328147,69.5635349 43.7287781,69.6457159 C44.1247415,69.727897 44.5169635,69.7689869 44.9054559,69.7689869 C45.5404915,69.7689869 46.0186288,69.6485188 46.3398821,69.4075788 C46.6611354,69.1666388 46.8217597,68.8313824 46.8217597,68.4017994 C46.8217597,68.1179012 46.7647941,67.8853695 46.6508612,67.7041976 C46.5369284,67.5230257 46.3464205,67.3558644 46.079332,67.2027088 C45.8122435,67.0495531 45.4060136,66.8758548 44.8606301,66.6816086 C44.0985873,66.4089168 43.5541458,66.0858006 43.2272893,65.7122503 C42.9004327,65.3386999 42.7370068,64.851224 42.7370068,64.2498079 C42.7370068,63.6185078 42.9742078,63.1160901 43.4486167,62.7425397 C43.9230257,62.3689893 44.5505809,62.182217 45.3313012,62.182217 C46.145641,62.182217 46.8945982,62.3316349 47.5781954,62.6304752 L47.2812243,63.4597528 C46.6050982,63.1758545 45.9476594,63.0339075 45.3088883,63.0339075 C44.8045953,63.0339075 44.4105055,63.1422355 44.1266073,63.3588947 C43.842709,63.5755539 43.700762,63.8762575 43.700762,64.2610143 C43.700762,64.5449126 43.7530582,64.7774442 43.8576523,64.9586162 C43.9622464,65.1397881 44.1387463,65.3060155 44.3871573,65.4573034 C44.6355683,65.6085913 45.0156501,65.7757526 45.5274141,65.9587923 C46.38658,66.2651036 46.9777145,66.593823 47.3008356,66.9449603 C47.6239567,67.2960976 47.7855148,67.7518222 47.7855148,68.3121478 Z M54.2878585,64.6868596 C54.2878585,65.5161414 54.0048984,66.1539691 53.4389696,66.6003618 C52.8730408,67.0467545 52.0633825,67.2699475 51.0099705,67.2699475 L50.0462153,67.2699475 L50.0462153,70.4918033 L49.0936667,70.4918033 L49.0936667,62.2998847 L51.2172899,62.2998847 C53.2643459,62.2998847 54.2878585,63.0955351 54.2878585,64.6868596 Z M50.0462153,66.4518763 L50.9035091,66.4518763 C51.747733,66.4518763 52.3584787,66.3155324 52.7357645,66.0428407 C53.1130504,65.7701489 53.3016905,65.3331015 53.3016905,64.7316855 C53.3016905,64.1900374 53.1242567,63.7866091 52.7693839,63.5213883 C52.414511,63.2561676 51.8616648,63.1235592 51.1108286,63.1235592 L50.0462153,63.1235592 L50.0462153,66.4518763 Z" id="Your-PSP" fill="#002936"></path>
                <path d="M10.1170274,390.163934 L8.40804303,390.163934 L8.40804303,381.972016 L13.1035476,381.972016 L13.1035476,383.395236 L10.1170274,383.395236 L10.1170274,385.507652 L12.8962282,385.507652 L12.8962282,386.925269 L10.1170274,386.925269 L10.1170274,390.163934 Z M18.6421363,390.163934 L18.4124039,389.362673 L18.3227523,389.362673 C18.1397126,389.654042 17.880099,389.879103 17.5439037,390.037862 C17.2077083,390.196621 16.824825,390.275999 16.395242,390.275999 C15.6593478,390.275999 15.1046339,390.078954 14.7310835,389.684858 C14.3575331,389.290763 14.1707607,388.723909 14.1707607,387.984279 L14.1707607,383.899526 L15.8797451,383.899526 L15.8797451,387.558434 C15.8797451,388.01043 15.9600572,388.349421 16.1206839,388.575419 C16.2813106,388.801417 16.5371887,388.914415 16.8883261,388.914415 C17.3664705,388.914415 17.7119994,388.754724 17.9249231,388.435339 C18.1378469,388.115953 18.2443071,387.586453 18.2443071,386.846824 L18.2443071,383.899526 L19.9532915,383.899526 L19.9532915,390.163934 L18.6421363,390.163934 Z M27.1616419,390.163934 L25.4526575,390.163934 L25.4526575,386.505027 C25.4526575,386.053031 25.3723454,385.714039 25.2117187,385.488041 C25.0510921,385.262043 24.7952139,385.149046 24.4440766,385.149046 C23.9659321,385.149046 23.6204032,385.308736 23.4074795,385.628122 C23.1945558,385.947507 23.0880955,386.477007 23.0880955,387.216637 L23.0880955,390.163934 L21.3791111,390.163934 L21.3791111,383.899526 L22.6846631,383.899526 L22.9143955,384.700788 L23.0096503,384.700788 C23.200161,384.398212 23.4625762,384.169416 23.7969038,384.014392 C24.1312314,383.859369 24.5113132,383.781858 24.9371606,383.781858 C25.6655838,383.781858 26.21843,383.978903 26.5957159,384.372999 C26.9730018,384.767094 27.1616419,385.335816 27.1616419,386.079182 L27.1616419,390.163934 Z M30.5373847,390.275999 C29.8014905,390.275999 29.22343,389.990237 28.8031858,389.418705 C28.3829416,388.847173 28.1728227,388.055258 28.1728227,387.042937 C28.1728227,386.015673 28.3866771,385.215354 28.8143923,384.641954 C29.2421074,384.068554 29.8313743,383.781858 30.5822105,383.781858 C31.3704018,383.781858 31.9718089,384.088165 32.3864498,384.700788 L32.442482,384.700788 C32.3565655,384.23385 32.3136078,383.817347 32.3136078,383.451268 L32.3136078,381.445312 L34.0281954,381.445312 L34.0281954,390.163934 L32.7170402,390.163934 L32.3864498,389.351466 L32.3136078,389.351466 C31.9251154,389.967825 31.333047,390.275999 30.5373847,390.275999 Z M31.13693,388.914415 C31.573984,388.914415 31.8942986,388.787409 32.0978835,388.533395 C32.3014685,388.279381 32.4125981,387.847937 32.4312756,387.23905 L32.4312756,387.054143 C32.4312756,386.381753 32.3276169,385.89988 32.1202965,385.608511 C31.912976,385.317141 31.5758519,385.171459 31.1089139,385.171459 C30.7278925,385.171459 30.4318583,385.333017 30.2208023,385.656138 C30.0097464,385.979259 29.90422,386.448992 29.90422,387.06535 C29.90422,387.681708 30.0106803,388.143969 30.223604,388.452148 C30.4365277,388.760327 30.7409667,388.914415 31.13693,388.914415 Z M35.3755699,382.280193 C35.3755699,381.723603 35.685612,381.445312 36.3057056,381.445312 C36.9257992,381.445312 37.2358414,381.723603 37.2358414,382.280193 C37.2358414,382.545414 37.1583309,382.751798 37.0033075,382.89935 C36.8482841,383.046902 36.6157524,383.120678 36.3057056,383.120678 C35.685612,383.120678 35.3755699,382.840519 35.3755699,382.280193 Z M37.1573962,390.163934 L35.4484118,390.163934 L35.4484118,383.899526 L37.1573962,383.899526 L37.1573962,390.163934 Z M44.3657466,390.163934 L42.6567622,390.163934 L42.6567622,386.505027 C42.6567622,386.053031 42.5764501,385.714039 42.4158235,385.488041 C42.2551968,385.262043 41.9993186,385.149046 41.6481813,385.149046 C41.1700368,385.149046 40.8245079,385.308736 40.6115842,385.628122 C40.3986605,385.947507 40.2922003,386.477007 40.2922003,387.216637 L40.2922003,390.163934 L38.5832159,390.163934 L38.5832159,383.899526 L39.8887679,383.899526 L40.1185002,384.700788 L40.2137551,384.700788 C40.4042658,384.398212 40.6666809,384.169416 41.0010085,384.014392 C41.3353361,383.859369 41.7154179,383.781858 42.1412653,383.781858 C42.8696885,383.781858 43.4225348,383.978903 43.7998206,384.372999 C44.1771065,384.767094 44.3657466,385.335816 44.3657466,386.079182 L44.3657466,390.163934 Z M51.2098872,383.899526 L51.2098872,384.768026 L50.2293224,385.020172 C50.4086266,385.300334 50.4982773,385.614112 50.4982773,385.961514 C50.4982773,386.633904 50.263878,387.157801 49.7950723,387.533219 C49.3262666,387.908637 48.6753648,388.096343 47.8423475,388.096343 L47.53417,388.079534 L47.2820248,388.051518 C47.1064561,388.185996 47.0186731,388.335414 47.0186731,388.499776 C47.0186731,388.746319 47.3324507,388.869589 47.9600153,388.869589 L49.0246285,388.869589 C49.7119612,388.869589 50.2358577,389.017139 50.5963338,389.312244 C50.9568099,389.607349 51.1370453,390.040661 51.1370453,390.612193 C51.1370453,391.344351 50.8316724,391.912139 50.2209176,392.315574 C49.6101627,392.719008 48.7332664,392.920722 47.5902023,392.920722 C46.7160944,392.920722 46.0483832,392.768503 45.5870485,392.464059 C45.1257138,392.159616 44.8950499,391.732841 44.8950499,391.183722 C44.8950499,390.806436 45.0127165,390.490791 45.2480532,390.236776 C45.4833899,389.982762 45.8289188,389.801593 46.2846503,389.693263 C46.1090816,389.618553 45.9559283,389.496217 45.8251856,389.326252 C45.694443,389.156287 45.6290727,388.976051 45.6290727,388.78554 C45.6290727,388.546468 45.6981785,388.347556 45.8363921,388.188797 C45.9746057,388.030038 46.1744522,387.874083 46.4359374,387.720927 C46.1072131,387.578978 45.8466656,387.351116 45.6542872,387.037334 C45.4619088,386.723551 45.365721,386.353742 45.365721,385.927894 C45.365721,385.244297 45.5879801,384.715731 46.0325051,384.342181 C46.47703,383.968631 47.1120561,383.781858 47.9376024,383.781858 C48.1131711,383.781858 48.3214223,383.797734 48.5623623,383.829486 C48.8033022,383.861238 48.9573895,383.884584 49.0246285,383.899526 L51.2098872,383.899526 Z M46.3743019,391.049244 C46.3743019,391.284581 46.4872992,391.469486 46.7132972,391.603964 C46.9392952,391.738442 47.2558743,391.80568 47.6630442,391.80568 C48.2756668,391.80568 48.7556719,391.721633 49.1030737,391.553535 C49.4504755,391.385437 49.6241739,391.155707 49.6241739,390.864338 C49.6241739,390.629001 49.521449,390.466509 49.3159963,390.376857 C49.1105436,390.287205 48.7930306,390.24238 48.3634477,390.24238 L47.4781377,390.24238 C47.1643554,390.24238 46.9019402,390.316155 46.6908843,390.463707 C46.4798283,390.611259 46.3743019,390.806437 46.3743019,391.049244 Z M46.9962602,385.950307 C46.9962602,386.290238 47.0737707,386.55919 47.2287941,386.757172 C47.3838175,386.955154 47.6200846,387.054143 47.9376024,387.054143 C48.2588557,387.054143 48.4941889,386.955154 48.6436091,386.757172 C48.7930292,386.55919 48.8677381,386.290238 48.8677381,385.950307 C48.8677381,385.195736 48.557696,384.818455 47.9376024,384.818455 C47.3100378,384.818455 46.9962602,385.195736 46.9962602,385.950307 Z M54.0839395,387.687308 L57.916547,386.112801 L54.0839395,384.336578 L54.0839395,382.991803 L59.6479443,385.771004 L59.6479443,386.572266 L54.0839395,389.026479 L54.0839395,387.687308 Z" id="Funding-&gt;" fill="#002936"></path>
                <path d="M233.095863,385.827036 L233.667392,385.827036 C234.201569,385.827036 234.601262,385.72151 234.866483,385.510454 C235.131704,385.299398 235.264312,384.992157 235.264312,384.588723 C235.264312,384.181553 235.153183,383.88085 234.93092,383.686603 C234.708658,383.492357 234.360327,383.395236 233.885918,383.395236 L233.095863,383.395236 L233.095863,385.827036 Z M237.018122,384.527088 C237.018122,385.408666 236.742633,386.082915 236.191646,386.549853 C235.64066,387.016791 234.857149,387.250256 233.841092,387.250256 L233.095863,387.250256 L233.095863,390.163934 L231.358863,390.163934 L231.358863,381.972016 L233.97557,381.972016 C234.969214,381.972016 235.724708,382.18587 236.242075,382.613585 C236.759443,383.041301 237.018122,383.679128 237.018122,384.527088 Z M242.041214,390.163934 L241.710624,389.312244 L241.665798,389.312244 C241.378164,389.674588 241.08213,389.925797 240.777686,390.065878 C240.473243,390.205959 240.076351,390.275999 239.587001,390.275999 C238.985584,390.275999 238.512116,390.104168 238.166582,389.760502 C237.821048,389.416836 237.648284,388.927492 237.648284,388.292456 C237.648284,387.627537 237.880815,387.137259 238.345886,386.821609 C238.810956,386.505959 239.512286,386.331327 240.449898,386.297707 L241.536924,386.264088 L241.536924,385.98953 C241.536924,385.354494 241.21194,385.036981 240.561962,385.036981 C240.061405,385.036981 239.473072,385.188267 238.796945,385.490843 L238.231019,384.336578 C238.951972,383.959292 239.751357,383.770652 240.629201,383.770652 C241.469689,383.770652 242.114054,383.953689 242.562314,384.319768 C243.010575,384.685848 243.234702,385.242429 243.234702,385.98953 L243.234702,390.163934 L242.041214,390.163934 Z M241.536924,387.261463 L240.875743,387.283876 C240.378921,387.298818 240.009112,387.388468 239.766304,387.55283 C239.523496,387.717193 239.402094,387.967468 239.402094,388.303663 C239.402094,388.785543 239.678517,389.026479 240.231372,389.026479 C240.627335,389.026479 240.943914,388.912548 241.181119,388.684682 C241.418323,388.456817 241.536924,388.154245 241.536924,387.77696 L241.536924,387.261463 Z M243.730385,383.899526 L245.601863,383.899526 L246.784144,387.423956 C246.885003,387.730267 246.954109,388.092606 246.991464,388.510982 L247.025083,388.510982 C247.066174,388.126225 247.146486,387.763887 247.266022,387.423956 L248.42589,383.899526 L250.258145,383.899526 L247.607819,390.965196 C247.365011,391.618909 247.018548,392.108253 246.56842,392.433242 C246.118292,392.75823 245.592528,392.920722 244.991112,392.920722 C244.696007,392.920722 244.40651,392.888971 244.122611,392.825467 L244.122611,391.469486 C244.328064,391.518048 244.552191,391.542328 244.794999,391.542328 C245.097574,391.542328 245.361857,391.449876 245.587855,391.264969 C245.813853,391.080061 245.990353,390.800836 246.11736,390.427286 L246.218218,390.119109 L243.730385,383.899526 Z M256.396279,390.163934 L254.687295,390.163934 L254.687295,386.505027 C254.687295,386.053031 254.611652,385.714039 254.460364,385.488041 C254.309076,385.262043 254.070942,385.149046 253.745953,385.149046 C253.308899,385.149046 252.991386,385.30967 252.793404,385.630923 C252.595422,385.952177 252.496433,386.480743 252.496433,387.216637 L252.496433,390.163934 L250.787449,390.163934 L250.787449,383.899526 L252.093001,383.899526 L252.322733,384.700788 L252.417988,384.700788 C252.586086,384.413154 252.82889,384.188093 253.146407,384.025599 C253.463925,383.863104 253.828131,383.781858 254.239037,383.781858 C255.176648,383.781858 255.811674,384.088165 256.144134,384.700788 L256.295421,384.700788 C256.463519,384.409418 256.710992,384.183424 257.037849,384.022797 C257.364706,383.86217 257.733581,383.781858 258.144486,383.781858 C258.854232,383.781858 259.391203,383.963961 259.755414,384.328173 C260.119626,384.692385 260.301729,385.276048 260.301729,386.079182 L260.301729,390.163934 L258.587141,390.163934 L258.587141,386.505027 C258.587141,386.053031 258.511499,385.714039 258.360211,385.488041 C258.208923,385.262043 257.970788,385.149046 257.645799,385.149046 C257.227423,385.149046 256.914579,385.298464 256.707259,385.597304 C256.499938,385.896144 256.396279,386.370546 256.396279,387.020524 L256.396279,390.163934 Z M264.28262,384.997759 C263.920276,384.997759 263.636382,385.112624 263.43093,385.342357 C263.225477,385.572091 263.10781,385.898008 263.077926,386.32012 L265.476108,386.32012 C265.468637,385.898008 265.358441,385.572091 265.145517,385.342357 C264.932594,385.112624 264.644964,384.997759 264.28262,384.997759 Z M264.523559,390.275999 C263.514973,390.275999 262.726794,389.997708 262.158997,389.441118 C261.591201,388.884528 261.307307,388.096349 261.307307,387.076556 C261.307307,386.02688 261.569722,385.215354 262.09456,384.641954 C262.619398,384.068554 263.345009,383.781858 264.271414,383.781858 C265.156728,383.781858 265.845918,384.034001 266.339005,384.538294 C266.832091,385.042587 267.078631,385.739248 267.078631,386.628298 L267.078631,387.457576 L263.038704,387.457576 C263.057381,387.943191 263.201196,388.322339 263.470152,388.595031 C263.739109,388.867723 264.116389,389.004066 264.602004,389.004066 C264.97929,389.004066 265.336025,388.964844 265.672221,388.886399 C266.008416,388.807953 266.359548,388.682815 266.725628,388.510982 L266.725628,389.833344 C266.426787,389.982764 266.107406,390.093894 265.767476,390.166736 C265.427545,390.239578 265.01291,390.275999 264.523559,390.275999 Z M273.883549,390.163934 L272.174564,390.163934 L272.174564,386.505027 C272.174564,386.053031 272.094252,385.714039 271.933626,385.488041 C271.772999,385.262043 271.517121,385.149046 271.165984,385.149046 C270.687839,385.149046 270.34231,385.308736 270.129386,385.628122 C269.916463,385.947507 269.810003,386.477007 269.810003,387.216637 L269.810003,390.163934 L268.101018,390.163934 L268.101018,383.899526 L269.40657,383.899526 L269.636302,384.700788 L269.731557,384.700788 C269.922068,384.398212 270.184483,384.169416 270.518811,384.014392 C270.853138,383.859369 271.23322,383.781858 271.659068,383.781858 C272.387491,383.781858 272.940337,383.978903 273.317623,384.372999 C273.694909,384.767094 273.883549,385.335816 273.883549,386.079182 L273.883549,390.163934 Z M277.914869,388.914415 C278.21371,388.914415 278.572313,388.849044 278.990689,388.718302 L278.990689,389.990234 C278.564842,390.180745 278.041879,390.275999 277.421785,390.275999 C276.738188,390.275999 276.24044,390.103235 275.928525,389.7577 C275.616611,389.412166 275.460656,388.893873 275.460656,388.202805 L275.460656,385.182665 L274.642584,385.182665 L274.642584,384.459849 L275.583927,383.88832 L276.077011,382.565958 L277.16964,382.565958 L277.16964,383.899526 L278.92345,383.899526 L278.92345,385.182665 L277.16964,385.182665 L277.16964,388.202805 C277.16964,388.445613 277.237812,388.624914 277.374158,388.740715 C277.510504,388.856515 277.690739,388.914415 277.914869,388.914415 Z M284.260323,388.303663 C284.260323,388.94617 284.03713,389.435513 283.590737,389.771709 C283.144344,390.107904 282.476633,390.275999 281.587583,390.275999 C281.131852,390.275999 280.743365,390.245182 280.422112,390.183546 C280.100859,390.12191 279.800155,390.031325 279.519992,389.911789 L279.519992,388.499776 C279.83751,388.649196 280.195179,388.774334 280.59301,388.875192 C280.990841,388.976051 281.34104,389.026479 281.643615,389.026479 C282.263709,389.026479 282.573751,388.847178 282.573751,388.488569 C282.573751,388.354091 282.532661,388.244829 282.45048,388.160781 C282.368299,388.076732 282.226352,387.981478 282.024635,387.875016 C281.822918,387.768554 281.553965,387.644351 281.21777,387.502401 C280.73589,387.300684 280.381957,387.113912 280.155959,386.942079 C279.929961,386.770245 279.765601,386.573201 279.662875,386.350938 C279.560148,386.128676 279.508786,385.855054 279.508786,385.530065 C279.508786,384.973475 279.724508,384.542965 280.155959,384.238521 C280.587409,383.934078 281.199089,383.781858 281.991016,383.781858 C282.745587,383.781858 283.479603,383.946218 284.193084,384.274942 L283.677587,385.507652 C283.363805,385.373174 283.070572,385.262979 282.79788,385.177062 C282.525189,385.091145 282.246898,385.048188 281.962999,385.048188 C281.458706,385.048188 281.206564,385.184532 281.206564,385.457223 C281.206564,385.610379 281.28781,385.742987 281.450304,385.855053 C281.612799,385.967118 281.9686,386.133345 282.517719,386.35374 C283.00707,386.551721 283.365673,386.736626 283.593539,386.908459 C283.821404,387.080292 283.989499,387.278271 284.097829,387.502401 C284.206159,387.726532 284.260323,387.993616 284.260323,388.303663 Z M295.550423,390.163934 L293.438006,390.163934 L292.793635,389.53077 C292.080153,390.027592 291.273297,390.275999 290.37304,390.275999 C289.461577,390.275999 288.738768,390.066814 288.204591,389.648438 C287.670414,389.230061 287.40333,388.664141 287.40333,387.95066 C287.40333,387.438896 287.516327,387.002782 287.742325,386.642306 C287.968323,386.28183 288.355876,385.944706 288.904995,385.630923 C288.624832,385.30967 288.42125,385.00243 288.294243,384.709192 C288.167236,384.415955 288.103733,384.095641 288.103733,383.748239 C288.103733,383.180442 288.321323,382.72285 288.756509,382.375448 C289.191695,382.028046 289.773491,381.854348 290.501915,381.854348 C291.196718,381.854348 291.752366,382.015906 292.168875,382.339027 C292.585383,382.662148 292.793635,383.094526 292.793635,383.636174 C292.793635,384.080699 292.664762,384.486929 292.407012,384.854876 C292.149262,385.222824 291.73276,385.573022 291.157492,385.905482 L292.748809,387.457576 C293.01403,387.020522 293.24376,386.458337 293.438006,385.771004 L295.219832,385.771004 C295.085354,386.275297 294.900449,386.767442 294.665113,387.247455 C294.429776,387.727467 294.162691,388.152374 293.863851,388.522189 L295.550423,390.163934 Z M289.201966,387.788166 C289.201966,388.109419 289.322434,388.365297 289.563374,388.555808 C289.804314,388.746319 290.113422,388.841573 290.490708,388.841573 C290.961382,388.841573 291.385355,388.727642 291.762641,388.499776 L289.902369,386.650711 C289.68571,386.815073 289.514813,386.986904 289.389674,387.166208 C289.264535,387.345512 289.201966,387.552829 289.201966,387.788166 Z M291.213524,383.815478 C291.213524,383.617496 291.146286,383.461541 291.011808,383.347608 C290.87733,383.233675 290.703632,383.17671 290.490708,383.17671 C290.240429,383.17671 290.043385,383.236477 289.899568,383.356013 C289.755751,383.475549 289.683843,383.645512 289.683843,383.865907 C289.683843,384.194631 289.861277,384.55697 290.21615,384.952933 C290.537403,384.773629 290.783943,384.597129 290.955776,384.423428 C291.127609,384.249727 291.213524,384.047079 291.213524,383.815478 Z M306.806903,390.163934 L304.828964,390.163934 L303.719525,385.860656 C303.678434,385.7075 303.608395,385.390921 303.509404,384.910909 C303.410413,384.430896 303.353447,384.108714 303.338505,383.944352 C303.316092,384.146069 303.260061,384.470119 303.170408,384.916512 C303.080756,385.362905 303.011651,385.681352 302.963089,385.871862 L301.859253,390.163934 L299.886917,390.163934 L297.796913,381.972016 L299.505898,381.972016 L300.553701,386.443391 C300.736741,387.268938 300.869349,387.984276 300.95153,388.589428 C300.973943,388.376504 301.025306,388.046851 301.105619,387.600458 C301.185932,387.154065 301.261575,386.807602 301.33255,386.561059 L302.526037,381.972016 L304.167783,381.972016 L305.36127,386.561059 C305.413567,386.766512 305.478938,387.080289 305.557383,387.502401 C305.635829,387.924513 305.695596,388.286852 305.736687,388.589428 C305.774042,388.298058 305.833809,387.934786 305.91599,387.4996 C305.998171,387.064414 306.07288,386.712348 306.140119,386.443391 L307.182319,381.972016 L308.891304,381.972016 L306.806903,390.163934 Z M313.169166,390.163934 L312.838576,389.312244 L312.79375,389.312244 C312.506116,389.674588 312.210082,389.925797 311.905638,390.065878 C311.601195,390.205959 311.204303,390.275999 310.714952,390.275999 C310.113536,390.275999 309.640068,390.104168 309.294534,389.760502 C308.949,389.416836 308.776236,388.927492 308.776236,388.292456 C308.776236,387.627537 309.008767,387.137259 309.473838,386.821609 C309.938908,386.505959 310.640238,386.331327 311.57785,386.297707 L312.664876,386.264088 L312.664876,385.98953 C312.664876,385.354494 312.339892,385.036981 311.689914,385.036981 C311.189357,385.036981 310.601024,385.188267 309.924897,385.490843 L309.358971,384.336578 C310.079924,383.959292 310.879309,383.770652 311.757153,383.770652 C312.597641,383.770652 313.242006,383.953689 313.690266,384.319768 C314.138527,384.685848 314.362654,385.242429 314.362654,385.98953 L314.362654,390.163934 L313.169166,390.163934 Z M312.664876,387.261463 L312.003695,387.283876 C311.506873,387.298818 311.137063,387.388468 310.894256,387.55283 C310.651448,387.717193 310.530046,387.967468 310.530046,388.303663 C310.530046,388.785543 310.806469,389.026479 311.359324,389.026479 C311.755287,389.026479 312.071866,388.912548 312.309071,388.684682 C312.546275,388.456817 312.664876,388.154245 312.664876,387.77696 L312.664876,387.261463 Z M317.463838,390.163934 L315.754854,390.163934 L315.754854,381.445312 L317.463838,381.445312 L317.463838,390.163934 Z M320.598642,390.163934 L318.889658,390.163934 L318.889658,381.445312 L320.598642,381.445312 L320.598642,390.163934 Z M324.618756,384.997759 C324.256412,384.997759 323.972518,385.112624 323.767066,385.342357 C323.561613,385.572091 323.443946,385.898008 323.414062,386.32012 L325.812244,386.32012 C325.804773,385.898008 325.694577,385.572091 325.481653,385.342357 C325.26873,385.112624 324.9811,384.997759 324.618756,384.997759 Z M324.859695,390.275999 C323.851109,390.275999 323.06293,389.997708 322.495133,389.441118 C321.927336,388.884528 321.643442,388.096349 321.643442,387.076556 C321.643442,386.02688 321.905858,385.215354 322.430696,384.641954 C322.955534,384.068554 323.681145,383.781858 324.60755,383.781858 C325.492864,383.781858 326.182054,384.034001 326.675141,384.538294 C327.168227,385.042587 327.414767,385.739248 327.414767,386.628298 L327.414767,387.457576 L323.37484,387.457576 C323.393517,387.943191 323.537332,388.322339 323.806288,388.595031 C324.075245,388.867723 324.452525,389.004066 324.93814,389.004066 C325.315426,389.004066 325.672161,388.964844 326.008357,388.886399 C326.344552,388.807953 326.695684,388.682815 327.061763,388.510982 L327.061763,389.833344 C326.762923,389.982764 326.443542,390.093894 326.103612,390.166736 C325.763681,390.239578 325.349046,390.275999 324.859695,390.275999 Z M331.076274,388.914415 C331.375114,388.914415 331.733717,388.849044 332.152094,388.718302 L332.152094,389.990234 C331.726246,390.180745 331.203284,390.275999 330.58319,390.275999 C329.899593,390.275999 329.401845,390.103235 329.08993,389.7577 C328.778015,389.412166 328.622061,388.893873 328.622061,388.202805 L328.622061,385.182665 L327.803989,385.182665 L327.803989,384.459849 L328.745332,383.88832 L329.238416,382.565958 L330.331045,382.565958 L330.331045,383.899526 L332.084855,383.899526 L332.084855,385.182665 L330.331045,385.182665 L330.331045,388.202805 C330.331045,388.445613 330.399217,388.624914 330.535563,388.740715 C330.671909,388.856515 330.852144,388.914415 331.076274,388.914415 Z M337.421728,388.303663 C337.421728,388.94617 337.198535,389.435513 336.752142,389.771709 C336.305749,390.107904 335.638038,390.275999 334.748988,390.275999 C334.293257,390.275999 333.90477,390.245182 333.583517,390.183546 C333.262263,390.12191 332.96156,390.031325 332.681397,389.911789 L332.681397,388.499776 C332.998915,388.649196 333.356584,388.774334 333.754415,388.875192 C334.152246,388.976051 334.502445,389.026479 334.80502,389.026479 C335.425114,389.026479 335.735156,388.847178 335.735156,388.488569 C335.735156,388.354091 335.694066,388.244829 335.611885,388.160781 C335.529704,388.076732 335.387757,387.981478 335.18604,387.875016 C334.984323,387.768554 334.71537,387.644351 334.379175,387.502401 C333.897295,387.300684 333.543361,387.113912 333.317363,386.942079 C333.091365,386.770245 332.927006,386.573201 332.824279,386.350938 C332.721553,386.128676 332.670191,385.855054 332.670191,385.530065 C332.670191,384.973475 332.885913,384.542965 333.317363,384.238521 C333.748814,383.934078 334.360494,383.781858 335.15242,383.781858 C335.906992,383.781858 336.641008,383.946218 337.354489,384.274942 L336.838992,385.507652 C336.52521,385.373174 336.231977,385.262979 335.959285,385.177062 C335.686593,385.091145 335.408303,385.048188 335.124404,385.048188 C334.620111,385.048188 334.367969,385.184532 334.367969,385.457223 C334.367969,385.610379 334.449215,385.742987 334.611709,385.855053 C334.774203,385.967118 335.130005,386.133345 335.679124,386.35374 C336.168475,386.551721 336.527078,386.736626 336.754943,386.908459 C336.982809,387.080292 337.150904,387.278271 337.259234,387.502401 C337.367564,387.726532 337.421728,387.993616 337.421728,388.303663 Z M340.598354,387.687308 L344.430962,386.112801 L340.598354,384.336578 L340.598354,382.991803 L346.162359,385.771004 L346.162359,386.572266 L340.598354,389.026479 L340.598354,387.687308 Z" id="Payments-&amp;-Wallets-&gt;" fill="#002936"></path>
                <path d="M393.751601,385.827036 L394.32313,385.827036 C394.857307,385.827036 395.257,385.72151 395.522221,385.510454 C395.787442,385.299398 395.92005,384.992157 395.92005,384.588723 C395.92005,384.181553 395.80892,383.88085 395.586658,383.686603 C395.364395,383.492357 395.016065,383.395236 394.541656,383.395236 L393.751601,383.395236 L393.751601,385.827036 Z M397.67386,384.527088 C397.67386,385.408666 397.398371,386.082915 396.847384,386.549853 C396.296397,387.016791 395.512887,387.250256 394.49683,387.250256 L393.751601,387.250256 L393.751601,390.163934 L392.0146,390.163934 L392.0146,381.972016 L394.631308,381.972016 C395.624952,381.972016 396.380446,382.18587 396.897813,382.613585 C397.41518,383.041301 397.67386,383.679128 397.67386,384.527088 Z M402.696952,390.163934 L402.366361,389.312244 L402.321536,389.312244 C402.033902,389.674588 401.737868,389.925797 401.433424,390.065878 C401.12898,390.205959 400.732089,390.275999 400.242738,390.275999 C399.641322,390.275999 399.167854,390.104168 398.82232,389.760502 C398.476786,389.416836 398.304022,388.927492 398.304022,388.292456 C398.304022,387.627537 398.536553,387.137259 399.001623,386.821609 C399.466694,386.505959 400.168024,386.331327 401.105635,386.297707 L402.192661,386.264088 L402.192661,385.98953 C402.192661,385.354494 401.867677,385.036981 401.2177,385.036981 C400.717142,385.036981 400.128809,385.188267 399.452683,385.490843 L398.886757,384.336578 C399.607709,383.959292 400.407095,383.770652 401.284939,383.770652 C402.125427,383.770652 402.769792,383.953689 403.218052,384.319768 C403.666312,384.685848 403.890439,385.242429 403.890439,385.98953 L403.890439,390.163934 L402.696952,390.163934 Z M402.192661,387.261463 L401.531481,387.283876 C401.034659,387.298818 400.664849,387.388468 400.422041,387.55283 C400.179234,387.717193 400.057832,387.967468 400.057832,388.303663 C400.057832,388.785543 400.334255,389.026479 400.887109,389.026479 C401.283073,389.026479 401.599652,388.912548 401.836856,388.684682 C402.074061,388.456817 402.192661,388.154245 402.192661,387.77696 L402.192661,387.261463 Z M404.386123,383.899526 L406.257601,383.899526 L407.439882,387.423956 C407.540741,387.730267 407.609847,388.092606 407.647202,388.510982 L407.680821,388.510982 C407.721911,388.126225 407.802224,387.763887 407.92176,387.423956 L409.081628,383.899526 L410.913883,383.899526 L408.263557,390.965196 C408.020749,391.618909 407.674286,392.108253 407.224158,392.433242 C406.77403,392.75823 406.248265,392.920722 405.646849,392.920722 C405.351745,392.920722 405.062247,392.888971 404.778349,392.825467 L404.778349,391.469486 C404.983802,391.518048 405.207929,391.542328 405.450736,391.542328 C405.753312,391.542328 406.017595,391.449876 406.243593,391.264969 C406.469591,391.080061 406.646091,390.800836 406.773098,390.427286 L406.873956,390.119109 L404.386123,383.899526 Z M412.804771,387.020524 C412.804771,387.640617 412.906562,388.109416 413.110147,388.426934 C413.313732,388.744452 413.645253,388.903208 414.104719,388.903208 C414.560451,388.903208 414.888236,388.745386 415.088086,388.429736 C415.287935,388.114085 415.387859,387.644353 415.387859,387.020524 C415.387859,386.40043 415.287001,385.935367 415.085284,385.62532 C414.883567,385.315273 414.55298,385.160252 414.093513,385.160252 C413.637782,385.160252 413.309062,385.31434 413.107345,385.622519 C412.905628,385.930698 412.804771,386.396695 412.804771,387.020524 Z M417.136066,387.020524 C417.136066,388.040316 416.867113,388.837834 416.329201,389.413102 C415.791288,389.98837 415.042331,390.275999 414.082307,390.275999 C413.48089,390.275999 412.950457,390.144324 412.49099,389.880971 C412.031523,389.617618 411.678523,389.239404 411.43198,388.746318 C411.185437,388.253231 411.062167,387.677972 411.062167,387.020524 C411.062167,385.996996 411.329251,385.201345 411.863429,384.633549 C412.397606,384.065752 413.14843,383.781858 414.115926,383.781858 C414.717342,383.781858 415.247776,383.912599 415.707243,384.174084 C416.166709,384.43557 416.519709,384.810982 416.766253,385.300333 C417.012796,385.789684 417.136066,386.363075 417.136066,387.020524 Z M422.618622,390.163934 L422.38889,389.362673 L422.299238,389.362673 C422.116198,389.654042 421.856585,389.879103 421.520389,390.037862 C421.184194,390.196621 420.801311,390.275999 420.371728,390.275999 C419.635833,390.275999 419.081119,390.078954 418.707569,389.684858 C418.334019,389.290763 418.147246,388.723909 418.147246,387.984279 L418.147246,383.899526 L419.856231,383.899526 L419.856231,387.558434 C419.856231,388.01043 419.936543,388.349421 420.09717,388.575419 C420.257796,388.801417 420.513674,388.914415 420.864812,388.914415 C421.342956,388.914415 421.688485,388.754724 421.901409,388.435339 C422.114332,388.115953 422.220793,387.586453 422.220793,386.846824 L422.220793,383.899526 L423.929777,383.899526 L423.929777,390.163934 L422.618622,390.163934 Z M427.994717,388.914415 C428.293557,388.914415 428.65216,388.849044 429.070537,388.718302 L429.070537,389.990234 C428.644689,390.180745 428.121726,390.275999 427.501633,390.275999 C426.818036,390.275999 426.320287,390.103235 426.008373,389.7577 C425.696458,389.412166 425.540503,388.893873 425.540503,388.202805 L425.540503,385.182665 L424.722432,385.182665 L424.722432,384.459849 L425.663774,383.88832 L426.156858,382.565958 L427.249488,382.565958 L427.249488,383.899526 L429.003298,383.899526 L429.003298,385.182665 L427.249488,385.182665 L427.249488,388.202805 C427.249488,388.445613 427.31766,388.624914 427.454005,388.740715 C427.590351,388.856515 427.770587,388.914415 427.994717,388.914415 Z M434.34017,388.303663 C434.34017,388.94617 434.116977,389.435513 433.670585,389.771709 C433.224192,390.107904 432.556481,390.275999 431.667431,390.275999 C431.211699,390.275999 430.823213,390.245182 430.501959,390.183546 C430.180706,390.12191 429.880003,390.031325 429.59984,389.911789 L429.59984,388.499776 C429.917358,388.649196 430.275027,388.774334 430.672858,388.875192 C431.070689,388.976051 431.420887,389.026479 431.723463,389.026479 C432.343557,389.026479 432.653599,388.847178 432.653599,388.488569 C432.653599,388.354091 432.612509,388.244829 432.530328,388.160781 C432.448147,388.076732 432.3062,387.981478 432.104483,387.875016 C431.902765,387.768554 431.633813,387.644351 431.297618,387.502401 C430.815738,387.300684 430.461804,387.113912 430.235806,386.942079 C430.009808,386.770245 429.845448,386.573201 429.742722,386.350938 C429.639996,386.128676 429.588633,385.855054 429.588633,385.530065 C429.588633,384.973475 429.804355,384.542965 430.235806,384.238521 C430.667257,383.934078 431.278936,383.781858 432.070863,383.781858 C432.825435,383.781858 433.55945,383.946218 434.272932,384.274942 L433.757435,385.507652 C433.443652,385.373174 433.15042,385.262979 432.877728,385.177062 C432.605036,385.091145 432.326745,385.048188 432.042847,385.048188 C431.538554,385.048188 431.286411,385.184532 431.286411,385.457223 C431.286411,385.610379 431.367657,385.742987 431.530152,385.855053 C431.692646,385.967118 432.048447,386.133345 432.597567,386.35374 C433.086918,386.551721 433.44552,386.736626 433.673386,386.908459 C433.901252,387.080292 434.069347,387.278271 434.177677,387.502401 C434.286006,387.726532 434.34017,387.993616 434.34017,388.303663 Z M437.516797,387.687308 L441.349404,386.112801 L437.516797,384.336578 L437.516797,382.991803 L443.080802,385.771004 L443.080802,386.572266 L437.516797,389.026479 L437.516797,387.687308 Z" id="Payouts-&gt;" fill="#002936"></path>
                <path d="M188.784468,10.0513896 C188.784468,12.9570778 188.06406,15.1903418 186.623223,16.7512487 C185.182386,18.3121556 183.117217,19.0925973 180.427654,19.0925973 C177.738092,19.0925973 175.672923,18.3121556 174.232086,16.7512487 C172.791248,15.1903418 172.070841,12.9490733 172.070841,10.0273758 C172.070841,7.10567827 172.79325,4.87441536 174.238089,3.33352011 C175.682929,1.79262485 177.754101,1.02218878 180.451668,1.02218878 C183.149235,1.02218878 185.212403,1.79862825 186.641233,3.35153048 C188.070063,4.90443271 188.784468,7.13769675 188.784468,10.0513896 Z M175.973088,10.0513896 C175.973088,12.012529 176.345299,13.4893649 177.089732,14.4819416 C177.834164,15.4745183 178.946794,15.9707992 180.427654,15.9707992 C183.39738,15.9707992 184.88222,13.9976824 184.88222,10.0513896 C184.88222,6.09709217 183.405384,4.1199731 180.451668,4.1199731 C178.970808,4.1199731 177.854176,4.61825513 177.101739,5.61483414 C176.349301,6.61141315 175.973088,8.09025018 175.973088,10.0513896 Z M194.541352,18.852459 L189.426406,5.42872695 L193.256612,5.42872695 L195.850106,13.0771324 C196.138273,14.0456952 196.318375,14.9622139 196.390417,15.8267162 L196.462458,15.8267162 C196.502482,15.0582697 196.682584,14.141751 197.00277,13.0771324 L199.584256,5.42872695 L203.414463,5.42872695 L198.299516,18.852459 L194.541352,18.852459 Z M210.107886,7.78208248 C209.331435,7.78208248 208.723091,8.0282218 208.282835,8.52050781 C207.842579,9.01279383 207.590436,9.71118912 207.526399,10.6157147 L212.665359,10.6157147 C212.64935,9.71118912 212.413216,9.01279383 211.956951,8.52050781 C211.500686,8.0282218 210.884337,7.78208248 210.107886,7.78208248 Z M210.624183,19.0925973 C208.462928,19.0925973 206.773972,18.4962598 205.557265,17.3035669 C204.340558,16.1108739 203.732214,14.4219179 203.732214,12.2366483 C203.732214,9.98734147 204.294532,8.24835719 205.419185,7.01964331 C206.543839,5.79092944 208.098719,5.17658171 210.083872,5.17658171 C211.980974,5.17658171 213.45781,5.71688753 214.514424,6.79751537 C215.571038,7.87814321 216.099337,9.37098817 216.099337,11.276095 L216.099337,13.0531186 L207.442351,13.0531186 C207.482374,14.0937232 207.790548,14.906183 208.366883,15.4905225 C208.943218,16.074862 209.751676,16.3670274 210.79228,16.3670274 C211.60075,16.3670274 212.365183,16.2829798 213.085601,16.1148822 C213.80602,15.9467845 214.558446,15.6786327 215.342901,15.3104188 L215.342901,18.144051 C214.702529,18.464237 214.018142,18.7023718 213.289719,18.8584625 C212.561296,19.0145532 211.672793,19.0925973 210.624183,19.0925973 Z M225.782483,5.17658171 C226.278771,5.17658171 226.691004,5.2126021 227.019195,5.28464395 L226.743036,8.71862193 C226.446864,8.63857542 226.08666,8.59855277 225.662414,8.59855277 C224.493735,8.59855277 223.583219,8.89872266 222.93084,9.49907147 C222.278461,10.0994203 221.952276,10.939896 221.952276,12.0205238 L221.952276,18.852459 L218.290167,18.852459 L218.290167,5.42872695 L221.063765,5.42872695 L221.604076,7.68602715 L221.78418,7.68602715 C222.200422,6.93358999 222.76274,6.32724679 223.471151,5.86697938 C224.179563,5.40671197 224.949999,5.17658171 225.782483,5.17658171 Z M231.863553,18.852459 L226.748607,5.42872695 L230.578813,5.42872695 L233.172307,13.0771324 C233.460475,14.0456952 233.640577,14.9622139 233.712618,15.8267162 L233.78466,15.8267162 C233.824683,15.0582697 234.004785,14.141751 234.324971,13.0771324 L236.906458,5.42872695 L240.736664,5.42872695 L235.621718,18.852459 L231.863553,18.852459 Z M241.714796,1.95872823 C241.714796,0.766035276 242.379172,0.169697746 243.707944,0.169697746 C245.036716,0.169697746 245.701092,0.766035276 245.701092,1.95872823 C245.701092,2.52705843 245.534998,2.96930874 245.202805,3.28549244 C244.870612,3.60167615 244.37233,3.75976562 243.707944,3.75976562 C242.379172,3.75976562 241.714796,3.15942583 241.714796,1.95872823 Z M245.532995,18.852459 L241.870886,18.852459 L241.870886,5.42872695 L245.532995,5.42872695 L245.532995,18.852459 Z M254.147525,7.78208248 C253.371074,7.78208248 252.76273,8.0282218 252.322474,8.52050781 C251.882218,9.01279383 251.630075,9.71118912 251.566038,10.6157147 L256.704998,10.6157147 C256.688989,9.71118912 256.452855,9.01279383 255.99659,8.52050781 C255.540325,8.0282218 254.923976,7.78208248 254.147525,7.78208248 Z M254.663822,19.0925973 C252.502567,19.0925973 250.813611,18.4962598 249.596904,17.3035669 C248.380197,16.1108739 247.771853,14.4219179 247.771853,12.2366483 C247.771853,9.98734147 248.334171,8.24835719 249.458824,7.01964331 C250.583478,5.79092944 252.138358,5.17658171 254.123511,5.17658171 C256.020613,5.17658171 257.497449,5.71688753 258.554063,6.79751537 C259.610677,7.87814321 260.138976,9.37098817 260.138976,11.276095 L260.138976,13.0531186 L251.48199,13.0531186 C251.522013,14.0937232 251.830187,14.906183 252.406522,15.4905225 C252.982857,16.074862 253.791315,16.3670274 254.831919,16.3670274 C255.640389,16.3670274 256.404822,16.2829798 257.12524,16.1148822 C257.845659,15.9467845 258.598085,15.6786327 259.38254,15.3104188 L259.38254,18.144051 C258.742168,18.464237 258.057781,18.7023718 257.329358,18.8584625 C256.600935,19.0145532 255.712432,19.0925973 254.663822,19.0925973 Z M272.871878,18.852459 L271.839283,14.1577549 L270.446481,8.22633837 L270.362433,8.22633837 L267.913022,18.852459 L263.974754,18.852459 L260.156554,5.42872695 L263.806657,5.42872695 L265.355549,11.3721504 C265.603693,12.4367689 265.855836,13.9056003 266.111985,15.7786885 L266.184026,15.7786885 C266.216045,15.1703351 266.356124,14.2057891 266.604268,12.8850218 L266.796379,11.8644339 L268.453333,5.42872695 L272.487657,5.42872695 L274.060563,11.8644339 C274.092582,12.0405362 274.14261,12.3006835 274.210649,12.6448835 C274.278689,12.9890834 274.344726,13.3552907 274.408764,13.7435163 C274.472801,14.1317418 274.530834,14.511957 274.582864,14.8841733 C274.634894,15.2563895 274.664911,15.5545583 274.672916,15.7786885 L274.744957,15.7786885 C274.816999,15.2023537 274.945071,14.4119063 275.129178,13.4073226 C275.313285,12.402739 275.44536,11.724355 275.525407,11.3721504 L277.134333,5.42872695 L280.724401,5.42872695 L276.858174,18.852459 L272.871878,18.852459 Z" id="Overview" fill="#002936"></path>
                <g id="Group-22" transform="translate(264.000000, 60.000000)" fill="#002936">
                    <path d="M62.9969296,0 C61.178149,0 60.2701542,0.970468411 58.9650976,2.04045645 L59.118973,1.91316862 L55.4602004,5.17583153 C54.5693235,6.03117336 53.9355878,6.35162251 53.281571,6.35162251 L53.2374737,6.35162251 C52.5834569,6.35162251 51.9497212,6.03117336 51.0588443,5.17583153 L47.4000717,1.91316862 L47.5539471,2.04045645 C46.2488906,0.970468411 45.3408957,0 43.5223012,0 C41.1237435,0 39.6303897,1.81648661 39.5961538,4.6533028 L39.5961538,9.996757 L42.2172447,10 L42.2287807,4.67803069 C42.2942754,3.95017938 42.8053946,3.47122849 43.5394191,3.47122849 C44.1930637,3.47122849 44.8271716,3.79167765 45.7180485,4.64701948 L47.628745,6.31919249 L49.2229457,7.78239455 C50.5276301,8.85238259 51.435625,9.82264832 53.2545916,9.82264832 L53.2644531,9.82264832 C55.0834198,9.82264832 55.9914146,8.85238259 57.296099,7.78239455 L58.8902997,6.31919249 L60.8011823,4.64701948 C61.6918731,3.79167765 62.325981,3.47122849 62.9796256,3.47122849 C63.7136501,3.47122849 64.2247693,3.95017938 64.290264,4.67803069 L64.3018,10 L66.9230769,9.996757 L66.9230769,4.6533028 C66.888655,1.81648661 65.3954873,0 62.9969296,0" id="Fill-4"></path>
                    <path d="M84.2115385,5.32614284 C84.2115385,6.28301594 83.4455212,7.05882353 82.5007235,7.05882353 L73.6531227,7.05882353 C72.70851,7.05882353 71.9423077,6.28301594 71.9423077,5.32614284 L71.9423077,4.6740446 C71.9423077,3.71698406 72.70851,2.94117647 73.6531227,2.94117647 L82.5007235,2.94117647 C83.4455212,2.94117647 84.2115385,3.71698406 84.2115385,4.6740446 L84.2115385,5.32614284 Z M83.1577499,0 L72.9962851,0 C70.8741439,0 69.1538462,1.81542815 69.1538462,4.05512046 L69.1538462,5.94487954 C69.1538462,8.18437257 70.8741439,10 72.9962851,10 L83.1577499,10 C85.2798911,10 87,8.18437257 87,5.94487954 L87,4.05512046 C87,1.81542815 85.2798911,0 83.1577499,0 Z" id="Fill-6"></path>
                    <path d="M35.1346154,5.32614284 C35.1346154,6.28301594 34.3685982,7.05882353 33.4238004,7.05882353 L24.5761996,7.05882353 C23.6314018,7.05882353 22.8653846,6.28301594 22.8653846,5.32614284 L22.8653846,4.6740446 C22.8653846,3.71698406 23.6314018,2.94117647 24.5761996,2.94117647 L33.4238004,2.94117647 C34.3685982,2.94117647 35.1346154,3.71698406 35.1346154,4.6740446 L35.1346154,5.32614284 Z M34.0806786,0 L23.9195102,0 C21.7973915,0 20.0769231,1.81542815 20.0769231,4.05512046 L20.0769231,5.94487954 C20.0769231,8.18437257 21.7973915,10 23.9195102,10 L34.0806786,10 C36.2027974,10 37.9230769,8.18437257 37.9230769,5.94487954 L37.9230769,4.05512046 C37.9230769,1.81542815 36.2027974,0 34.0806786,0 Z" id="Fill-8"></path>
                    <path d="M3.98454832,0.174065444 C5.8303831,0.174065444 6.59590885,1.00256916 7.92018909,2.05393241 L11.6331967,5.25980363 C12.5373253,6.10025692 13.1806766,6.41512816 13.844233,6.41512816 C14.5889872,6.41512816 15.1077092,5.94451415 15.174367,5.22913306 L15.1858858,0 L17.8461538,0.0029873932 L17.8461538,5.25362968 C17.8114087,8.04086754 16.2958415,9.8257354 13.8616055,9.8257354 C12.0157707,9.8257354 11.0942696,8.87235865 9.76998935,7.8209954 L8.15226387,6.38326263 L6.21295714,4.74019637 C5.30882856,3.89974308 4.66547724,3.58487184 4.00192088,3.58487184 C3.25716667,3.58487184 2.73844461,4.05548585 2.67178684,4.77066778 L2.66026808,10 L0,9.99681345 L0,4.74637032 C0.0347451254,1.9589333 1.55031239,0.174065444 3.98454832,0.174065444" id="Fill-1"></path>
                </g>
            </g>
        </g>
    </g>
</svg>