<?xml version="1.0" encoding="UTF-8"?>
<svg width="90px" height="90px" viewBox="0 0 90 90" version="1.1" xmlns="http://www.w3.org/2000/svg" xmlns:xlink="http://www.w3.org/1999/xlink">
    <!-- Generator: Sketch 50.2 (55047) - http://www.bohemiancoding.com/sketch -->
    <title>Group 7</title>
    <desc>Created with Sketch.</desc>
    <defs></defs>
    <g id="desk" stroke="none" stroke-width="1" fill="none" fill-rule="evenodd">
        <g id="graphic" transform="translate(-639.000000, -331.000000)">
            <g id="Group-7" transform="translate(624.000000, 316.000000)">
                <g id="support">
                    <rect id="Rectangle-42" fill="#FF0000" opacity="0" x="0" y="0" width="120" height="120"></rect>
                    <g transform="translate(15.000000, 15.000000)" fill="#002936" id="Rectangle-7">
                        <rect x="0" y="0" width="90" height="90" rx="45"></rect>
                    </g>
                </g>
                <g id="Group-5" transform="translate(58.000000, 52.000000)"></g>
                <g id="Group-6" transform="translate(61.000000, 52.000000)"></g>
                <g id="applepay" transform="translate(46.000000, 35.000000)">
                    <rect id="Rectangle-41" fill="#17D6D8" x="0" y="0" width="28" height="51" rx="5"></rect>
                    <rect id="Rectangle-4" fill="#002936" x="1" y="6" width="26" height="40"></rect>
                    <circle id="Oval-16" fill="#002936" cx="14" cy="48" r="1"></circle>
                    <rect id="Rectangle-5" fill="#FFFFFF" x="5" y="13" width="18" height="11" rx="1"></rect>
                    <circle id="Oval-25" fill="#17D6D8" cx="16" cy="19" r="2"></circle>
                    <circle id="Oval-25" fill="#002936" cx="13" cy="19" r="2"></circle>
                    <path d="M14.5,20.3229122 C14.1888183,19.9703456 14,19.5072232 14,19 C14,18.4927768 14.1888183,18.0296544 14.5,17.6770878 C14.8111817,18.0296544 15,18.4927768 15,19 C15,19.5072232 14.8111817,19.9703456 14.5,20.3229122 Z" id="Combined-Shape" fill="#17D6D8" opacity="0.721651786"></path>
                </g>
            </g>
        </g>
    </g>
</svg>