<?xml version="1.0" encoding="UTF-8"?>
<svg width="100px" height="37px" viewBox="0 0 100 37" version="1.1" xmlns="http://www.w3.org/2000/svg" xmlns:xlink="http://www.w3.org/1999/xlink">
    <!-- Generator: Sketch 50.2 (55047) - http://www.bohemiancoding.com/sketch -->
    <title>psd2</title>
    <desc>Created with Sketch.</desc>
    <defs></defs>
    <g id="desk" stroke="none" stroke-width="1" fill="none" fill-rule="evenodd">
        <g id="graphic" transform="translate(-354.000000, -526.000000)">
            <g id="psd2" transform="translate(344.000000, 484.000000)">
                <g id="Group">
                    <g id="Group-2">
                        <rect id="Rectangle-42" fill="#FF0000" opacity="0" x="0" y="0" width="120" height="120"></rect>
                        <path d="M82.7274312,56.2734082 C82.7572075,62.2234431 86.9787908,67.1821672 92.5901836,68.3475833 L90.5143709,78.7228464 L10,78.7228464 L14.6479369,56.2734082 L82.7274199,56.2734082 Z" id="Combined-Shape" fill="#002936"></path>
                        <path d="M34.8986115,60.9503745 C36.4032749,60.9503745 37.5609404,61.2857428 38.3716427,61.9564894 C39.182345,62.627236 39.5876901,63.5752963 39.5876901,64.8006987 C39.5876901,66.0132022 39.3185409,67.0773515 38.7802346,67.9931786 C38.2419283,68.9090056 37.4669085,69.6184385 36.4551521,70.1214984 C35.4433956,70.6245584 34.2565453,70.8760846 32.8945654,70.8760846 L30.7543221,70.8760846 L30.0149653,74.5135768 L25.9679597,74.5135768 L28.6919058,60.9503745 L34.8986115,60.9503745 Z M33.5249888,67.965824 C34.2294611,67.965824 34.7898284,67.7579609 35.2061075,67.3422285 C35.6223866,66.926496 35.8305231,66.367864 35.8305231,65.6663155 C35.8305231,65.1986166 35.6960349,64.8413519 35.4270546,64.5945108 C35.1580742,64.3476696 34.7674182,64.2242509 34.2550746,64.2242509 L32.3337961,64.2242509 L31.6037102,67.965824 L33.5249888,67.965824 Z" id="Combined-Shape" fill="#FFFFFF"></path>
                        <path d="M46.3511367,60.4826779 C47.3450434,60.4826779 48.326193,60.6285242 49.294615,60.9202213 C50.2630369,61.2119183 51.0976511,61.6030516 51.7984828,62.093633 L50.0018143,65.2956547 C49.3392098,64.8713682 48.593791,64.5034377 47.7655354,64.1918522 C46.9372798,63.8802667 46.2492008,63.7244763 45.7012779,63.7244763 C45.3317485,63.7244763 45.0418634,63.7973995 44.8316139,63.943248 C44.6213644,64.0890965 44.5162412,64.3012366 44.5162412,64.5796747 C44.5162412,64.9376665 44.6946321,65.2161004 45.0514191,65.4149847 C45.4082061,65.6138691 45.968863,65.8326386 46.7334066,66.0712998 C47.587147,66.3497378 48.2847826,66.614913 48.8263343,66.8668331 C49.3678861,67.1187533 49.8393476,67.5065719 50.240733,68.0303007 C50.6421184,68.5540294 50.842808,69.2401701 50.842808,70.0887432 C50.842808,71.1494597 50.5752218,72.0477405 50.0400413,72.7836125 C49.5048607,73.5194845 48.7881118,74.0697229 47.8897731,74.4343442 C46.9914343,74.7989655 45.994357,74.9812734 44.8985111,74.9812734 C43.7516957,74.9812734 42.6176397,74.7790774 41.496309,74.3746792 C40.3749784,73.9702811 39.4256843,73.416728 38.6483983,72.7140033 L40.4641803,69.5517582 C41.0758152,70.1616702 41.8467185,70.6787617 42.7769132,71.1030483 C43.7071079,71.5273349 44.5226089,71.739475 45.2234405,71.739475 C45.6821667,71.739475 46.0421339,71.6466637 46.303353,71.4610383 C46.5645721,71.2754129 46.6951797,71.0102378 46.6951797,70.6655049 C46.6951797,70.3075131 46.5167888,70.0323939 46.1600018,69.8401391 C45.8032148,69.6478842 45.2361868,69.4390588 44.4589008,69.2136565 C43.6179028,68.9617364 42.9234527,68.70982 42.3755298,68.4578998 C41.8276069,68.2059797 41.3529598,67.8281051 40.9515744,67.3242648 C40.550189,66.8204245 40.3494994,66.1574867 40.3494994,65.3354314 C40.3494994,64.3542687 40.6011579,63.4990789 41.1044824,62.7698363 C41.607807,62.0405938 42.3118136,61.4770966 43.2165236,61.0793279 C44.1212335,60.6815593 45.1660941,60.4826779 46.3511367,60.4826779 Z" id="PSD2" fill="#FFFFFF"></path>
                        <path d="M59.8564455,60.9503745 C61.2282563,60.9503745 62.4153825,61.2051254 63.4178597,61.7146349 C64.4203369,62.2241443 65.1754811,62.9400266 65.6833149,63.8623031 C66.1911487,64.7845797 66.4120861,65.8519537 66.3461336,67.0644571 C66.2669907,68.5220411 65.8416038,69.8151437 65.0699602,70.9438039 C64.2983166,72.072464 63.2628787,72.949581 61.9636156,73.5751812 C60.6643524,74.2007814 59.2101228,74.5135768 57.6008831,74.5135768 L51.3288369,74.5135768 L54.0790401,60.9503745 L59.8564455,60.9503745 Z M62.1233138,67.3568179 C62.1768054,66.4189189 61.9394398,65.6623584 61.4112097,65.0871137 C60.8829796,64.511869 60.1575099,64.2242509 59.2347789,64.2242509 L57.5096816,64.2242509 L56.0252956,71.2397004 L58.3120524,71.2397004 C58.994071,71.2397004 59.6159022,71.0771337 60.1775646,70.7519953 C60.7392269,70.426857 61.1938992,69.9704197 61.5415949,69.3826696 C61.8892907,68.7949196 62.083195,68.1196425 62.1233138,67.3568179 Z" id="Combined-Shape" fill="#FFFFFF"></path>
                        <path d="M78.5682976,63.5200711 C78.5682976,64.3096699 78.2591667,65.1024407 77.6408956,65.8984073 C77.0226245,66.6943738 76.1338732,67.5762915 74.9746149,68.5441868 L72.0764837,70.9511777 L77.4476869,70.9511777 L76.8294189,74.0458801 L66.3575049,74.0458801 L66.8405267,71.5051676 L72.6367891,66.5765674 C73.0876118,66.1945034 73.4579248,65.8219967 73.7477394,65.4590359 C74.037554,65.0960752 74.1888993,64.7808771 74.2017799,64.5134324 C74.2275412,64.2587231 74.1470384,64.0581425 73.960269,63.9116847 C73.7734996,63.7652268 73.49979,63.691999 73.1391318,63.691999 C72.6110253,63.691999 71.9895434,63.8416385 71.2746675,64.1409219 C70.5597915,64.4402053 69.835266,64.8572855 69.1010691,65.3921751 L68.1543462,62.5267098 C70.4084595,61.1640151 72.4822126,60.4826779 74.3756678,60.4826779 C75.6379713,60.4826779 76.652307,60.7596701 77.4187056,61.3136628 C78.1851041,61.8676555 78.5682976,62.6031176 78.5682976,63.5200711 Z" id="PSD2" fill="#FFFFFF"></path>
                        <rect id="Path" fill="#002936" x="85.2066116" y="42" width="24.7933884" height="24.9438202" rx="12.3966942"></rect>
                        <polyline id="Path-29" stroke="#17D6D8" stroke-width="2" points="93.0578512 56.0053941 95.3203664 58.2134831 102.561983 51.1460674"></polyline>
                    </g>
                </g>
                <g id="Group-21" transform="translate(10.000000, 42.000000)">
                    <g id="Group-18" transform="translate(0.000000, 14.273408)"></g>
                    <g id="ok" transform="translate(82.644628, 9.561798)">
                        <g id="Group-20"></g>
                    </g>
                </g>
            </g>
        </g>
    </g>
</svg>