<?xml version="1.0" encoding="UTF-8"?>
<svg width="25px" height="11px" viewBox="0 0 25 11" version="1.1" xmlns="http://www.w3.org/2000/svg" xmlns:xlink="http://www.w3.org/1999/xlink">
    <!-- Generator: Sketch 50.2 (55047) - http://www.bohemiancoding.com/sketch -->
    <title>PSP</title>
    <desc>Created with Sketch.</desc>
    <defs></defs>
    <g id="Page-1" stroke="none" stroke-width="1" fill="none" fill-rule="evenodd">
        <g id="timeline" transform="translate(-26.000000, -688.000000)" fill="#002936">
            <g id="Group-3" transform="translate(21.000000, 675.000000)">
                <g id="Group-7">
                    <path d="M9.67927693,13.6154787 C10.8115544,13.6154787 11.6878075,13.9126866 12.3080624,14.5071111 C12.9283174,15.1015357 13.2384402,15.9428624 13.2384402,17.0311166 C13.2384402,18.1742407 12.9283174,19.0612918 12.3080624,19.6922963 C11.6878075,20.3233008 10.8115544,20.6387984 9.67927693,20.6387984 L8.30556478,20.6525158 L8.30556478,23.2313909 L5.708,23.2313909 L5.708,13.6154787 L9.67927693,13.6154787 Z M9.55439401,18.444011 C9.94569579,18.444011 10.2474932,18.3297003 10.4597952,18.1010754 C10.6720972,17.8724506 10.7782466,17.5432358 10.7782466,17.1134211 C10.7782466,16.6927514 10.6720972,16.3703953 10.4597952,16.1463429 C10.2474932,15.9222906 9.94569579,15.8102661 9.55439401,15.8102661 L8.30556478,15.8102661 L8.30556478,18.444011 L9.55439401,18.444011 Z M20.4117153,16.7156159 C19.9454834,16.4138311 19.4334685,16.1577752 18.8756553,15.9474403 C18.3178421,15.7371055 17.8599427,15.6319396 17.5019432,15.6319396 C17.2771528,15.6319396 17.1002371,15.6799501 16.9711908,15.7759726 C16.8421444,15.871995 16.7776222,16.011454 16.7776222,16.1943539 C16.7776222,16.4504137 16.9025039,16.6493143 17.152271,16.7910617 C17.4020381,16.9328091 17.7974967,17.0859855 18.3386588,17.2505953 C18.9547509,17.4426402 19.4626031,17.6369684 19.8622304,17.8335857 C20.2618578,18.0302031 20.6094451,18.3296971 20.9050028,18.7320768 C21.2005605,19.1344565 21.3483372,19.6648582 21.3483372,20.3232977 C21.3483372,20.9908822 21.1880724,21.555577 20.8675379,22.0173992 C20.5470035,22.4792213 20.1140804,22.8244396 19.5687555,23.0530645 C19.0234307,23.2816893 18.4135919,23.396 17.7392207,23.396 C16.9899195,23.396 16.238548,23.2565409 15.485084,22.9776187 C14.7316199,22.6986964 14.0801539,22.3168986 13.5306663,21.832214 L14.504753,19.6648615 C14.9460082,20.0855311 15.4850808,20.4398943 16.1219869,20.7279616 C16.758893,21.0160289 17.306291,21.1600604 17.7641973,21.1600604 C18.0472667,21.1600604 18.267891,21.1006188 18.4260768,20.9817339 C18.5842626,20.862849 18.6633544,20.6936691 18.6633544,20.4741893 C18.6633544,20.2089845 18.53431,20.0055115 18.2762173,19.8637641 C18.0181246,19.7220167 17.6185033,19.5734128 17.0773412,19.4179479 C16.4695746,19.244193 15.9658852,19.0635821 15.5662579,18.8761097 C15.1666305,18.6886374 14.8211246,18.3982882 14.5297296,18.0050535 C14.2383347,17.6118188 14.0926394,17.0951344 14.0926394,16.4549849 C14.0926394,15.8331254 14.2424974,15.2912927 14.5422179,14.8294705 C14.8419384,14.3676484 15.2644548,14.0132852 15.8097796,13.7663704 C16.3551044,13.5194556 16.9899196,13.396 17.7142441,13.396 C18.3719642,13.396 19.0255116,13.4988796 19.674906,13.704642 C20.3243005,13.9104043 20.8904307,14.1824638 21.3733138,14.5208285 L20.4117153,16.7156159 Z M26.1488367,13.6154787 C27.2811142,13.6154787 28.1573673,13.9126866 28.7776222,14.5071111 C29.3978772,15.1015357 29.708,15.9428624 29.708,17.0311166 C29.708,18.1742407 29.3978772,19.0612918 28.7776222,19.6922963 C28.1573673,20.3233008 27.2811142,20.6387984 26.1488367,20.6387984 L24.7751246,20.6525158 L24.7751246,23.2313909 L22.1775598,23.2313909 L22.1775598,13.6154787 L26.1488367,13.6154787 Z M26.0239538,18.444011 C26.4152556,18.444011 26.717053,18.3297003 26.929355,18.1010754 C27.141657,17.8724506 27.2478064,17.5432358 27.2478064,17.1134211 C27.2478064,16.6927514 27.141657,16.3703953 26.929355,16.1463429 C26.717053,15.9222906 26.4152556,15.8102661 26.0239538,15.8102661 L24.7751246,15.8102661 L24.7751246,18.444011 L26.0239538,18.444011 Z" id="PSP"></path>
                </g>
            </g>
        </g>
    </g>
</svg>