<?xml version="1.0" encoding="UTF-8"?>
<svg width="20px" height="14px" viewBox="0 0 20 14" version="1.1" xmlns="http://www.w3.org/2000/svg" xmlns:xlink="http://www.w3.org/1999/xlink">
    <!-- Generator: Sketch 50.2 (55047) - http://www.bohemiancoding.com/sketch -->
    <title>%</title>
    <desc>Created with Sketch.</desc>
    <defs></defs>
    <g id="Page-1" stroke="none" stroke-width="1" fill="none" fill-rule="evenodd">
        <g id="timeline" transform="translate(-28.000000, -432.000000)" fill="#EF8368">
            <g id="Group-10" transform="translate(21.000000, 422.000000)">
                <path d="M11.1330645,10 C12.3830708,10 13.3810447,10.3812168 14.1270161,11.143662 C14.8729876,11.9061071 15.2459677,12.931449 15.2459677,14.2197183 C15.2459677,15.5079877 14.8729876,16.5399022 14.1270161,17.315493 C13.3810447,18.0910837 12.3830708,18.4788732 11.1330645,18.4788732 C9.88305827,18.4788732 8.88172419,18.0910837 8.12903226,17.315493 C7.37634032,16.5399022 7,15.5079877 7,14.2197183 C7,12.9445946 7.37634032,11.9225391 8.12903226,11.1535211 C8.88172419,10.3845032 9.88305827,10 11.1330645,10 Z M11.1330645,12.3267606 C10.7432776,12.3267606 10.4307807,12.4976509 10.1955645,12.8394366 C9.96034829,13.1812224 9.84274194,13.6413117 9.84274194,14.2197183 C9.84274194,14.798125 9.96034829,15.2615006 10.1955645,15.6098592 C10.4307807,15.9582177 10.7432776,16.1323944 11.1330645,16.1323944 C11.5228514,16.1323944 11.8353483,15.9582177 12.0705645,15.6098592 C12.3057807,15.2615006 12.4233871,14.798125 12.4233871,14.2197183 C12.4233871,13.6413117 12.3057807,13.1812224 12.0705645,12.8394366 C11.8353483,12.4976509 11.5228514,12.3267606 11.1330645,12.3267606 Z M20.4072581,10.0788732 L23.4112903,10.0788732 L13.5927419,23.9014085 L10.5887097,23.9014085 L20.4072581,10.0788732 Z M22.8870968,15.5211268 C24.137103,15.5211268 25.1350769,15.9023436 25.8810484,16.6647887 C26.6270199,17.4272339 27,18.4525757 27,19.7408451 C27,21.0291144 26.6270199,22.061029 25.8810484,22.8366197 C25.1350769,23.6122105 24.137103,24 22.8870968,24 C21.6370905,24 20.6357565,23.6122105 19.8830645,22.8366197 C19.1303726,22.061029 18.7540323,21.0291144 18.7540323,19.7408451 C18.7540323,18.4657213 19.1303726,17.4436658 19.8830645,16.6746479 C20.6357565,15.90563 21.6370905,15.5211268 22.8870968,15.5211268 Z M22.8870968,17.8478873 C22.4973099,17.8478873 22.184813,18.0187776 21.9495968,18.3605634 C21.7143805,18.7023491 21.5967742,19.1624384 21.5967742,19.7408451 C21.5967742,20.3192517 21.7143805,20.7826274 21.9495968,21.1309859 C22.184813,21.4793445 22.4973099,21.6535211 22.8870968,21.6535211 C23.2768837,21.6535211 23.5893805,21.4793445 23.8245968,21.1309859 C24.059813,20.7826274 24.1774194,20.3192517 24.1774194,19.7408451 C24.1774194,19.1624384 24.059813,18.7023491 23.8245968,18.3605634 C23.5893805,18.0187776 23.2768837,17.8478873 22.8870968,17.8478873 Z" id="%"></path>
            </g>
        </g>
    </g>
</svg>