<?xml version="1.0" encoding="UTF-8"?>
<svg width="24px" height="24px" viewBox="0 0 24 24" version="1.1" xmlns="http://www.w3.org/2000/svg" xmlns:xlink="http://www.w3.org/1999/xlink">
    <!-- Generator: Sketch 50.2 (55047) - http://www.bohemiancoding.com/sketch -->
    <title>if_social_media_social_media_logo_slack_2993744 (1)</title>
    <desc>Created with Sketch.</desc>
    <defs>
        <linearGradient x1="3.76351909%" y1="28.4395759%" x2="96.2364805%" y2="71.5604264%" id="linearGradient-1">
            <stop stop-color="#FFFFFF" stop-opacity="0.2" offset="0%"></stop>
            <stop stop-color="#FFFFFF" stop-opacity="0" offset="100%"></stop>
        </linearGradient>
    </defs>
    <g id="desk" stroke="none" stroke-width="1" fill="none" fill-rule="evenodd">
        <g id="Nomo" transform="translate(-386.000000, -2550.000000)" fill-rule="nonzero">
            <g id="if_social_media_social_media_logo_slack_2993744-(1)" transform="translate(386.000000, 2550.000000)">
                <path d="M19.1633523,3.27272727 L18.7670455,3.27272727 C18.5827415,3.27272727 18.3973721,3.29190338 18.2162642,3.33025571 L2.10404825,6.74786935 C0.885298255,7.00621451 0,8.09872156 0,9.34517051 C0,10.8089488 1.19105116,12 2.6548296,12 L3.05113636,12 C3.23544033,12 3.42080967,11.9808239 3.6019176,11.9424716 L19.7141336,8.52485793 C20.9328836,8.26651276 21.8181818,7.17400571 21.8181818,5.92755687 C21.8181818,4.46377844 20.6271307,3.27272727 19.1633523,3.27272727 Z" id="Shape" fill="#89D3DE"></path>
                <path d="M21.3451705,12 L20.9488636,12 C20.7645597,12 20.5791903,12.0191761 20.3980824,12.0575284 L4.28586644,15.4751421 C3.06711644,15.7334872 2.18181818,16.8259943 2.18181818,18.0724432 C2.18181818,19.5362216 3.37286935,20.7272727 4.83664778,20.7272727 L5.23295455,20.7272727 C5.41725851,20.7272727 5.60262785,20.7080966 5.78373578,20.6697443 L21.8959517,17.2521307 C23.1147017,16.9937855 24,15.9012784 24,14.6548296 C24,13.1910512 22.8089488,12 21.3451705,12 Z" id="Shape" fill="#E01E5A"></path>
                <path d="M20.6697443,18.2162642 L17.2521307,2.10404825 C16.9932528,0.884765673 15.9012784,0 14.6548296,0 C13.1910512,0 12,1.19105116 12,2.6548296 L12,3.05166905 C12,3.23863636 12.0191761,3.4245384 12.0575284,3.6019176 L15.4751421,19.7141336 C15.7340199,20.9334161 16.8259943,21.8181818 18.0724432,21.8181818 C19.5362216,21.8181818 20.7272727,20.6271307 20.7272727,19.1633523 L20.7272727,18.7665129 C20.7272727,18.5795455 20.7080966,18.3936434 20.6697443,18.2162642 Z" id="Shape" fill="#ECB32C"></path>
                <path d="M11.9424716,20.3980824 L8.52485793,4.28586644 C8.26598007,3.06658385 7.17400571,2.18181818 5.92755687,2.18181818 C4.46377844,2.18181818 3.27272727,3.37286935 3.27272727,4.83664778 L3.27272727,5.23348724 C3.27272727,5.42045455 3.29190338,5.60635658 3.33025571,5.78373578 L6.74786935,21.8959517 C7.0067472,23.1152343 8.09872156,24 9.34517051,24 C10.8089488,24 12,22.8089488 12,21.3451705 L12,20.9483311 C12,20.7613636 11.9808239,20.5754616 11.9424716,20.3980824 Z" id="Shape" fill="#65C2A1"></path>
                <rect id="Rectangle-path" fill="#331733" transform="translate(8.535494, 17.329885) rotate(-11.976067) translate(-8.535494, -17.329885) " x="5.83931155" y="14.6337027" width="5.39236526" height="5.39236526"></rect>
                <rect id="Rectangle-path" fill="#D62328" transform="translate(17.329883, 15.464505) rotate(-11.975523) translate(-17.329883, -15.464505) " x="14.633701" y="12.768323" width="5.39236488" height="5.39236488"></rect>
                <rect id="Rectangle-path" fill="#268C75" transform="translate(6.670115, 8.535495) rotate(-11.976214) translate(-6.670115, -8.535495) " x="3.97393274" y="5.83931219" width="5.3923649" height="5.3923649"></rect>
                <rect id="Rectangle-path" fill="#829C3C" transform="translate(15.464505, 6.670116) rotate(-11.976214) translate(-15.464505, -6.670116) " x="12.7683224" y="3.97393372" width="5.3923649" height="5.3923649"></rect>
                <path d="M21.3451705,12 L20.9488636,12 C20.7645597,12 20.5791903,12.0191761 20.3980824,12.0575284 L19.4079146,12.2675338 L18.6614435,8.74818 L19.7141335,8.52485793 C20.9328836,8.26651276 21.8181818,7.17400571 21.8181818,5.92755687 C21.8181818,4.46377844 20.6271307,3.27272727 19.1633523,3.27272727 L18.7670455,3.27272727 C18.5827415,3.27272727 18.3973721,3.29190338 18.2162642,3.33025571 L17.5425693,3.47314451 L17.2521307,2.10404825 C16.9932528,0.884765673 15.9012784,0 14.6548296,0 C13.1910512,0 12,1.19105116 12,2.6548296 L12,3.05166905 C12,3.23863636 12.0191761,3.4245384 12.0575284,3.6019176 L12.2675338,4.59208538 L8.74818,5.33855651 L8.52485793,4.28586644 C8.26598007,3.06658385 7.17400571,2.18181818 5.92755687,2.18181818 C4.46377844,2.18181818 3.27272727,3.37286935 3.27272727,4.83664778 L3.27272727,5.23348724 C3.27272727,5.42045455 3.29190338,5.60635658 3.33025571,5.78373578 L3.47314451,6.45743073 L2.10404825,6.74786935 C0.885298255,7.00621451 0,8.09872156 0,9.34517051 C0,10.8089488 1.19105116,12 2.6548296,12 L3.05113636,12 C3.23544033,12 3.42080967,11.9808239 3.6019176,11.9424716 L4.59208538,11.7324662 L5.3385564,15.2518199 L4.28586644,15.475142 C3.06711644,15.7334872 2.18181818,16.8259943 2.18181818,18.0724432 C2.18181818,19.5362216 3.37286935,20.7272727 4.83664778,20.7272727 L5.23295455,20.7272727 C5.41725851,20.7272727 5.60262785,20.7080966 5.78373578,20.6697443 L6.45743073,20.5268555 L6.74786935,21.8959517 C7.0067472,23.1152343 8.09872156,24 9.34517051,24 C10.8089488,24 12,22.8089488 12,21.3451705 L12,20.9483311 C12,20.7613637 11.9808239,20.5754617 11.9424716,20.3980825 L11.7324662,19.4079147 L15.2518199,18.6614437 L15.475142,19.7141337 C15.7340199,20.9334161 16.8259943,21.8181818 18.0724432,21.8181818 C19.5362216,21.8181818 20.7272727,20.6271307 20.7272727,19.1633523 L20.7272727,18.7665129 C20.7272727,18.5795456 20.7080966,18.3936435 20.6697443,18.2162643 L20.5268555,17.5425694 L21.8959517,17.2521308 C23.1147017,16.9937855 24,15.9012784 24,14.6548296 C24,13.1910512 22.8089488,12 21.3451705,12 Z M10.6135253,14.1329457 L9.86705433,10.6135253 L13.3864747,9.86705433 L14.1329457,13.3864747 L10.6135253,14.1329457 Z" id="Shape" fill="url(#linearGradient-1)"></path>
            </g>
        </g>
    </g>
</svg>